<svg height="30" xmlns="http://www.w3.org/2000/svg" stroke-linejoin="round" viewBox="0 0 287 119" fill="currentColor"><g id="Page-1" stroke="none" stroke-width="1" fill="none" fill-rule="evenodd"><g id="logo" fill="#FFFFFF" fill-rule="nonzero"><g id="Group" transform="translate(143.422034, 59.343798) scale(-1, 1) rotate(-180.000000) translate(-143.422034, -59.343798) translate(0.000000, 0.000000)"><path d="M40.338845,117.86495 C27.138845,115.26495 11.038845,104.96495 4.93884497,95.3649504 C1.43884497,89.7649504 -0.561155031,81.9649504 0.138844969,76.7649504 C0.938844969,70.5649504 4.03884497,66.4649504 9.93884497,63.4649504 C14.538845,61.0649504 15.938845,60.8649504 26.938845,60.9649504 C37.338845,60.9649504 40.038845,61.3649504 46.938845,63.7649504 C56.838845,67.1649504 63.238845,71.1649504 68.338845,77.1649504 C76.638845,87.1649504 78.438845,92.4649504 74.138845,94.4649504 C72.238845,95.2649504 69.538845,94.7649504 59.838845,91.3649504 C43.338845,85.6649504 37.038845,83.9649504 35.138845,84.6649504 C30.838845,86.2649504 35.838845,98.0649504 42.538845,102.06495 C44.438845,103.26495 48.938845,105.06495 52.738845,106.26495 C61.938845,109.06495 63.438845,109.96495 63.438845,112.96495 C63.438845,114.86495 62.638845,115.76495 60.238845,116.76495 C55.038845,118.86495 47.438845,119.26495 40.338845,117.86495 Z" id="Path"></path><path d="M85.438845,114.26495 C83.938845,111.46495 84.638845,82.6649504 86.438845,77.0649504 C89.738845,66.1649504 100.638845,63.3649504 111.538845,70.6649504 C121.638845,77.4649504 117.838845,87.1649504 105.638845,85.6649504 C102.438845,85.3649504 100.438845,85.4649504 100.038845,86.2649504 C99.638845,86.8649504 98.638845,91.7649504 97.838845,97.1649504 C96.038845,109.16495 93.038845,115.76495 89.238845,116.16495 C87.338845,116.36495 86.238845,115.86495 85.438845,114.26495 Z" id="Path"></path><path d="M198.138845,110.26495 C195.938845,108.96495 192.538845,101.86495 192.438845,98.6649504 C192.438845,95.5649504 189.638845,95.7649504 188.838845,98.8649504 C188.138845,101.86495 182.038845,107.36495 179.538845,107.36495 C177.038845,107.36495 175.838845,105.66495 174.438845,100.06495 C173.738845,97.4649504 172.838845,95.3649504 172.438845,95.3649504 C172.038845,95.3649504 170.938845,97.1649504 169.938845,99.2649504 C167.138845,105.56495 163.038845,108.86495 158.538845,108.46495 C155.438845,108.26495 160.238845,86.9649504 164.938845,79.6649504 C168.338845,74.4649504 174.238845,76.1649504 178.438845,83.6649504 C181.038845,88.1649504 182.038845,88.3649504 182.838845,84.1649504 C184.138845,77.5649504 189.238845,75.3649504 193.238845,79.6649504 C196.438845,83.0649504 201.938845,95.3649504 203.438845,102.36495 C204.638845,108.16495 204.638845,108.76495 202.938845,109.96495 C200.738845,111.56495 200.538845,111.66495 198.138845,110.26495 Z" id="Path"></path><path d="M131.438845,102.46495 C125.938845,99.4649504 123.538845,96.2649504 122.338845,90.1649504 C120.938845,83.0649504 121.838845,78.0649504 125.238845,74.3649504 C129.538845,69.7649504 135.438845,69.9649504 141.938845,74.9649504 L146.638845,78.4649504 L148.838845,76.4649504 C153.238845,72.3649504 158.138845,74.8649504 156.438845,80.2649504 C153.738845,88.7649504 147.938845,100.06495 145.038845,102.56495 C142.238845,104.86495 135.938845,104.76495 131.438845,102.46495 Z M141.838845,90.0649504 C143.038845,86.6649504 141.838845,85.2649504 137.338845,85.0649504 C133.138845,84.8649504 132.538845,86.9649504 135.538845,90.7649504 C138.138845,94.0649504 140.538845,93.7649504 141.838845,90.0649504 Z" id="Shape"></path><path d="M172.838845,60.3649504 C163.538845,58.9649504 149.238845,53.3649504 141.638845,48.1649504 C136.738845,44.8649504 128.138845,32.4649504 126.438845,26.5649504 C123.338845,15.3649504 128.438845,6.26495037 140.538845,1.76495037 C146.038845,-0.335049629 162.638845,-0.635049629 170.438845,1.26495037 C180.138845,3.66495037 191.138845,10.0649504 199.438845,18.3649504 C207.538845,26.3649504 210.538845,31.4649504 208.738845,34.2649504 C206.938845,37.0649504 199.038845,36.1649504 188.438845,31.9649504 C178.438845,27.9649504 170.738845,25.3649504 168.738845,25.3649504 C168.038845,25.3649504 166.738845,26.4649504 165.838845,27.8649504 C164.338845,30.2649504 164.338845,30.6649504 166.838845,35.7649504 C170.038845,42.3649504 174.238845,45.2649504 185.438845,48.8649504 C197.938845,52.7649504 199.438845,54.7649504 192.238845,58.1649504 C187.038845,60.5649504 179.738845,61.4649504 172.838845,60.3649504 Z" id="Path"></path><path d="M267.438845,48.6649504 C266.638845,48.3649504 265.138845,47.3649504 264.138845,46.5649504 C262.838845,45.3649504 262.138845,45.2649504 261.238845,46.1649504 C257.038845,50.3649504 251.638845,43.6649504 252.838845,35.9649504 C254.538845,25.2649504 260.038845,11.0649504 262.938845,10.0649504 C267.338845,8.36495037 268.538845,11.4649504 267.438845,21.4649504 C266.538845,29.3649504 267.238845,32.6649504 270.038845,33.7649504 C273.138845,34.9649504 275.338845,31.4649504 276.438845,23.4649504 C277.538845,15.3649504 278.638845,13.3649504 281.638845,13.3649504 C284.838845,13.3649504 286.838845,19.5649504 286.838845,30.0649504 C286.938845,40.1649504 285.638845,43.1649504 279.838845,46.5649504 C276.638845,48.4649504 269.738845,49.6649504 267.438845,48.6649504 Z" id="Path"></path><path d="M221.438845,39.1649504 C214.638845,34.5649504 211.338845,21.7649504 215.138845,14.3649504 C219.338845,6.16495037 233.038845,3.86495037 241.638845,9.96495037 C247.438845,14.0649504 249.638845,18.1649504 249.538845,24.8649504 C249.438845,35.6649504 244.438845,40.4649504 232.538845,41.1649504 C225.838845,41.4649504 224.538845,41.2649504 221.438845,39.1649504 Z M236.338845,28.9649504 C239.338845,25.7649504 238.938845,20.7649504 235.338845,18.1649504 C232.838845,16.2649504 232.538845,16.2649504 229.638845,17.7649504 C226.138845,19.5649504 224.138845,24.3649504 225.438845,27.7649504 C227.038845,31.9649504 232.938845,32.6649504 236.338845,28.9649504 Z" id="Shape"></path></g></g></g></svg>
