<svg xmlns="http://www.w3.org/2000/svg" xmlns:xlink="http://www.w3.org/1999/xlink" width="2000" zoomAndPan="magnify" viewBox="0 0 1500 1499.999933" height="2000" preserveAspectRatio="xMidYMid meet" version="1.0"><defs><g/></defs><rect x="-150" width="1800" fill="#ffffff" y="-149.999993" height="1799.99992" fill-opacity="1"/><rect x="-150" width="1800" fill="#1a332b" y="-149.999993" height="1799.99992" fill-opacity="1"/><g fill="#f7f5f0" fill-opacity="1"><g transform="translate(145.108161, 905.697557)"><g><path d="M 48.34375 0 L 48.34375 -328.84375 L 99.859375 -328.84375 L 94.140625 -220.703125 L 104.3125 -220.703125 C 109.820312 -246.992188 117.238281 -268.722656 126.5625 -285.890625 C 135.894531 -303.066406 147.554688 -315.894531 161.546875 -324.375 C 175.546875 -332.863281 191.453125 -337.109375 209.265625 -337.109375 C 225.367188 -337.109375 239.144531 -334.140625 250.59375 -328.203125 C 262.050781 -322.265625 271.488281 -313.992188 278.90625 -303.390625 C 286.320312 -292.796875 291.9375 -280.5 295.75 -266.5 C 299.570312 -252.507812 301.484375 -237.671875 301.484375 -221.984375 L 311.03125 -221.984375 C 315.269531 -247.421875 322.265625 -268.617188 332.015625 -285.578125 C 341.765625 -302.546875 353.953125 -315.375 368.578125 -324.0625 C 383.210938 -332.757812 399.859375 -337.109375 418.515625 -337.109375 C 438.441406 -337.109375 454.875 -332.972656 467.8125 -324.703125 C 480.75 -316.429688 490.820312 -305.722656 498.03125 -292.578125 C 505.238281 -279.429688 510.535156 -265.753906 513.921875 -251.546875 C 517.316406 -237.347656 519.4375 -223.890625 520.28125 -211.171875 C 521.132812 -198.453125 521.5625 -188.484375 521.5625 -181.265625 L 521.5625 0 L 463.671875 0 L 463.671875 -171.09375 C 463.671875 -180 463.25 -190.8125 462.40625 -203.53125 C 461.5625 -216.25 459.125 -228.753906 455.09375 -241.046875 C 451.0625 -253.347656 444.910156 -263.632812 436.640625 -271.90625 C 428.378906 -280.175781 416.613281 -284.3125 401.34375 -284.3125 C 385.65625 -284.3125 371.554688 -278.796875 359.046875 -267.765625 C 346.535156 -256.742188 336.359375 -241.375 328.515625 -221.65625 C 320.671875 -201.945312 315.691406 -179.15625 313.578125 -153.28125 L 313.578125 0 L 256.328125 0 L 256.328125 -161.5625 C 256.328125 -170.882812 256.007812 -182.328125 255.375 -195.890625 C 254.738281 -209.460938 252.507812 -223.035156 248.6875 -236.609375 C 244.875 -250.179688 238.726562 -261.523438 230.25 -270.640625 C 221.769531 -279.753906 209.472656 -284.3125 193.359375 -284.3125 C 176.816406 -284.3125 162.394531 -278.476562 150.09375 -266.8125 C 137.800781 -255.15625 127.945312 -239.253906 120.53125 -219.109375 C 113.113281 -198.972656 108.34375 -176.1875 106.21875 -150.75 L 106.21875 0 Z M 48.34375 0 "/></g></g></g><g fill="#f7f5f0" fill-opacity="1"><g transform="translate(664.761711, 905.697557)"><g><path d="M 125.296875 8.265625 C 107.066406 8.265625 90.742188 4.875 76.328125 -1.90625 C 61.910156 -8.6875 50.460938 -18.863281 41.984375 -32.4375 C 33.503906 -46.007812 29.265625 -62.972656 29.265625 -83.328125 C 29.265625 -105.367188 33.925781 -122.960938 43.25 -136.109375 C 52.582031 -149.253906 64.664062 -159.535156 79.5 -166.953125 C 94.34375 -174.378906 110.5625 -179.785156 128.15625 -183.171875 C 145.757812 -186.566406 163.039062 -189.539062 180 -192.09375 C 197.382812 -194.632812 211.054688 -197.070312 221.015625 -199.40625 C 230.984375 -201.738281 238.085938 -205.128906 242.328125 -209.578125 C 246.566406 -214.023438 248.6875 -220.703125 248.6875 -229.609375 C 248.6875 -241.054688 246.140625 -251.234375 241.046875 -260.140625 C 235.960938 -269.046875 228.546875 -276.039062 218.796875 -281.125 C 209.046875 -286.21875 196.328125 -288.765625 180.640625 -288.765625 C 167.921875 -288.765625 155.195312 -286.644531 142.46875 -282.40625 C 129.75 -278.164062 118.722656 -270.957031 109.390625 -260.78125 C 100.066406 -250.601562 93.921875 -236.609375 90.953125 -218.796875 L 38.15625 -235.96875 C 41.550781 -252.082031 47.171875 -266.285156 55.015625 -278.578125 C 62.859375 -290.878906 72.820312 -301.484375 84.90625 -310.390625 C 97 -319.296875 111.097656 -325.972656 127.203125 -330.421875 C 143.316406 -334.878906 160.914062 -337.109375 180 -337.109375 C 206.289062 -337.109375 227.703125 -333.394531 244.234375 -325.96875 C 260.773438 -318.550781 273.5 -308.375 282.40625 -295.4375 C 291.3125 -282.507812 297.457031 -268.203125 300.84375 -252.515625 C 304.238281 -236.828125 305.9375 -220.925781 305.9375 -204.8125 L 305.9375 -134.203125 C 305.9375 -120.640625 306.253906 -106.117188 306.890625 -90.640625 C 307.523438 -75.160156 308.375 -59.578125 309.4375 -43.890625 C 310.5 -28.203125 311.664062 -13.570312 312.9375 0 L 259.5 0 C 258.65625 -13.988281 257.804688 -27.976562 256.953125 -41.96875 C 256.109375 -55.96875 255.476562 -70.175781 255.0625 -84.59375 L 246.78125 -84.59375 C 240.84375 -68.050781 232.570312 -52.785156 221.96875 -38.796875 C 211.375 -24.804688 198.019531 -13.460938 181.90625 -4.765625 C 165.789062 3.921875 146.921875 8.265625 125.296875 8.265625 Z M 141.84375 -38.796875 C 151.59375 -38.796875 161.34375 -40.382812 171.09375 -43.5625 C 180.84375 -46.75 190.59375 -51.835938 200.34375 -58.828125 C 210.101562 -65.828125 219.117188 -74.835938 227.390625 -85.859375 C 235.660156 -96.890625 242.972656 -110.25 249.328125 -125.9375 L 249.328125 -185.09375 L 266.5 -182.546875 C 259.71875 -175.765625 250.707031 -170.570312 239.46875 -166.96875 C 228.226562 -163.363281 215.820312 -160.601562 202.25 -158.6875 C 188.6875 -156.78125 175.117188 -154.554688 161.546875 -152.015625 C 147.984375 -149.472656 135.582031 -146.082031 124.34375 -141.84375 C 113.101562 -137.601562 103.984375 -131.347656 96.984375 -123.078125 C 89.992188 -114.804688 86.5 -103.675781 86.5 -89.6875 C 86.5 -73.144531 91.585938 -60.523438 101.765625 -51.828125 C 111.941406 -43.140625 125.300781 -38.796875 141.84375 -38.796875 Z M 141.84375 -38.796875 "/></g></g></g><g fill="#f7f5f0" fill-opacity="1"><g transform="translate(971.97403, 905.697557)"><g><path d="M 164.734375 8.265625 C 137.171875 8.265625 113.425781 0.953125 93.5 -13.671875 C 73.570312 -28.304688 58.410156 -48.554688 48.015625 -74.421875 C 37.628906 -100.285156 32.4375 -130.175781 32.4375 -164.09375 C 32.4375 -198.019531 37.414062 -227.914062 47.375 -253.78125 C 57.34375 -279.644531 72.1875 -299.890625 91.90625 -314.515625 C 111.625 -329.148438 135.476562 -336.46875 163.46875 -336.46875 C 186.789062 -336.46875 205.976562 -331.585938 221.03125 -321.828125 C 236.082031 -312.078125 248.054688 -299.25 256.953125 -283.34375 C 265.859375 -267.445312 272.4375 -249.960938 276.6875 -230.890625 L 287.5 -230.890625 C 285.800781 -243.609375 283.992188 -256.859375 282.078125 -270.640625 C 280.171875 -284.421875 278.6875 -297.773438 277.625 -310.703125 C 276.570312 -323.640625 276.046875 -335.195312 276.046875 -345.375 L 276.046875 -443.953125 L 334.5625 -443.953125 L 333.921875 -160.921875 L 334.5625 0 L 281.765625 0 L 285.578125 -90.953125 L 275.40625 -90.953125 C 270.738281 -71.023438 263.632812 -53.640625 254.09375 -38.796875 C 244.5625 -23.953125 232.582031 -12.394531 218.15625 -4.125 C 203.738281 4.132812 185.929688 8.265625 164.734375 8.265625 Z M 178.09375 -42.609375 C 193.78125 -42.609375 207.664062 -46.210938 219.75 -53.421875 C 231.832031 -60.628906 242.113281 -70.0625 250.59375 -81.71875 C 259.082031 -93.382812 265.445312 -106.109375 269.6875 -119.890625 C 273.925781 -133.671875 276.046875 -146.710938 276.046875 -159.015625 L 276.046875 -166.640625 C 276.046875 -175.117188 274.878906 -184.660156 272.546875 -195.265625 C 270.210938 -205.867188 266.5 -216.46875 261.40625 -227.0625 C 256.320312 -237.664062 249.960938 -247.421875 242.328125 -256.328125 C 234.703125 -265.234375 225.691406 -272.441406 215.296875 -277.953125 C 204.910156 -283.460938 192.929688 -286.21875 179.359375 -286.21875 C 160.703125 -286.21875 144.90625 -280.8125 131.96875 -270 C 119.039062 -259.1875 109.1875 -244.554688 102.40625 -226.109375 C 95.625 -207.671875 92.234375 -186.578125 92.234375 -162.828125 C 92.234375 -138.660156 95.625 -117.566406 102.40625 -99.546875 C 109.1875 -81.523438 119.039062 -67.53125 131.96875 -57.5625 C 144.90625 -47.59375 160.28125 -42.609375 178.09375 -42.609375 Z M 178.09375 -42.609375 "/></g></g></g></svg>
