<svg xmlns="http://www.w3.org/2000/svg" xmlns:xlink="http://www.w3.org/1999/xlink" width="2000" zoomAndPan="magnify" viewBox="0 0 1500 1499.999933" height="2000" preserveAspectRatio="xMidYMid meet" version="1.0"><defs><g/><clipPath id="0a7a2abc14"><rect x="0" width="1037" y="0" height="1500"/></clipPath></defs><rect x="-150" width="1800" fill="#ffffff" y="-149.999993" height="1799.99992" fill-opacity="1"/><rect x="-150" width="1800" fill="#1a332b" y="-149.999993" height="1799.99992" fill-opacity="1"/><g transform="matrix(1, 0, 0, 1, 194, 0.000000000000112861)"><g clip-path="url(#0a7a2abc14)"><g fill="#f7f5f0" fill-opacity="1"><g transform="translate(0.203684, 1162.085912)"><g><path d="M 95.03125 0 L 95.03125 -646.4375 L 196.3125 -646.4375 L 185.0625 -433.875 L 205.0625 -433.875 C 215.894531 -485.5625 230.476562 -528.285156 248.8125 -562.046875 C 267.15625 -595.804688 290.082031 -621.019531 317.59375 -637.6875 C 345.101562 -654.363281 376.363281 -662.703125 411.375 -662.703125 C 443.050781 -662.703125 470.140625 -656.863281 492.640625 -645.1875 C 515.148438 -633.519531 533.695312 -617.265625 548.28125 -596.421875 C 562.875 -575.585938 573.921875 -551.414062 581.421875 -523.90625 C 588.921875 -496.394531 592.671875 -467.21875 592.671875 -436.375 L 611.4375 -436.375 C 619.769531 -486.394531 633.519531 -528.078125 652.6875 -561.421875 C 671.863281 -594.765625 695.832031 -619.976562 724.59375 -637.0625 C 753.351562 -654.15625 786.070312 -662.703125 822.75 -662.703125 C 861.925781 -662.703125 894.222656 -654.570312 919.640625 -638.3125 C 945.066406 -622.0625 964.863281 -601.015625 979.03125 -575.171875 C 993.207031 -549.328125 1003.628906 -522.441406 1010.296875 -494.515625 C 1016.972656 -466.597656 1021.144531 -440.132812 1022.8125 -415.125 C 1024.476562 -390.113281 1025.3125 -370.523438 1025.3125 -356.359375 L 1025.3125 0 L 911.515625 0 L 911.515625 -336.34375 C 911.515625 -353.851562 910.679688 -375.109375 909.015625 -400.109375 C 907.347656 -425.117188 902.554688 -449.710938 894.640625 -473.890625 C 886.722656 -498.066406 874.632812 -518.28125 858.375 -534.53125 C 842.125 -550.789062 818.992188 -558.921875 788.984375 -558.921875 C 758.140625 -558.921875 730.421875 -548.082031 705.828125 -526.40625 C 681.242188 -504.726562 661.238281 -474.507812 645.8125 -435.75 C 630.394531 -396.988281 620.601562 -352.1875 616.4375 -301.34375 L 616.4375 0 L 503.90625 0 L 503.90625 -317.59375 C 503.90625 -335.9375 503.28125 -358.441406 502.03125 -385.109375 C 500.78125 -411.785156 496.398438 -438.460938 488.890625 -465.140625 C 481.390625 -491.816406 469.300781 -514.113281 452.625 -532.03125 C 435.957031 -549.957031 411.785156 -558.921875 380.109375 -558.921875 C 347.597656 -558.921875 319.253906 -547.457031 295.078125 -524.53125 C 270.910156 -501.601562 251.53125 -470.34375 236.9375 -430.75 C 222.351562 -391.15625 212.976562 -346.351562 208.8125 -296.34375 L 208.8125 0 Z M 95.03125 0 "/></g></g></g></g></g></svg>
