<svg xmlns="http://www.w3.org/2000/svg" viewBox="7.5 -71.1 572.8 72.4" width="572.8" height="72.4" role="img" aria-label="mad.builders">
  <path d="M18.30 0L7.50 0L7.50-32.60L7.50-52L16.70-52L16.10-35.80L17.90-35.80Q21.80-53.30 34.50-53.30Q39.30-53.30 42.45-51Q45.60-48.70 47.20-44.75Q48.80-40.80 49-36L50.60-36Q52.40-44.60 56.85-48.95Q61.30-53.30 67.90-53.30Q76.10-53.30 80.30-46.80Q84.50-40.30 84.50-27.90L84.50 0L73.60 0L73.60-26.50Q73.60-43.70 64.20-43.70Q58.80-43.70 55.40-38.35Q52-33 51.30-24.60L51.30 0L40.60 0L40.60-25.80Q40.60-43.70 31.20-43.70Q27.40-43.70 24.65-41.10Q21.90-38.50 20.30-34.15Q18.70-29.80 18.30-24.30L18.30 0M108.70 1.30Q102.20 1.30 97.95-2.40Q93.70-6.10 93.70-13.50Q93.70-21.40 99.55-25Q105.40-28.60 118-30.40Q123.30-31.10 125.70-32.05Q128.10-33 128.10-36.30Q128.10-39.70 125.70-42.15Q123.30-44.60 118.20-44.60Q115.30-44.60 112.45-43.60Q109.60-42.60 107.55-40.30Q105.50-38 104.80-34.30L95-37.40Q96.90-45 102.90-49.15Q108.90-53.30 118.50-53.30Q128.90-53.30 133.90-48.10Q138.90-42.90 138.90-31.80L138.90-21.20Q138.90-16.20 139.20-10.55Q139.50-4.90 140.10 0L130.20 0Q129.50-5.90 129.20-12.70L127.70-12.70Q125.60-7 120.90-2.85Q116.20 1.30 108.70 1.30M112.50-7.10Q116.60-7.10 121.05-9.95Q125.50-12.80 128.30-19.20L128.30-26.50Q125.80-25.40 122.65-24.85Q119.50-24.30 116.30-23.80Q113.10-23.30 110.40-22.40Q107.70-21.50 106-19.70Q104.30-17.90 104.30-14.70Q104.30-11 106.60-9.05Q108.90-7.10 112.50-7.10M170.10 1.30Q163.40 1.30 158.65-2.15Q153.90-5.60 151.40-11.75Q148.90-17.90 148.90-26Q148.90-33.90 151.25-40Q153.60-46.10 158.25-49.65Q162.90-53.20 169.70-53.20Q175.10-53.20 178.60-51.05Q182.10-48.90 184.20-45.20Q186.30-41.50 187.50-37L189.50-37Q188.70-41.40 188.05-46.20Q187.40-51 187.40-54.40L187.40-70.50L198.40-70.50L198.40-25.60L198.40 0L188.90 0L189.30-14.40L187.50-14.40Q185.70-7.10 181.55-2.90Q177.40 1.30 170.10 1.30M173.10-7.90Q177.80-7.90 181-10.65Q184.20-13.40 185.85-17.40Q187.50-21.40 187.50-25.10L187.50-26.50Q187.50-29 186.60-32Q185.70-35 183.95-37.75Q182.20-40.50 179.50-42.25Q176.80-44 173.10-44Q166.90-44 163.55-38.85Q160.20-33.70 160.20-25.80Q160.20-17.70 163.65-12.80Q167.10-7.90 173.10-7.90" fill="#000000"/>
  <path d="M212.60 1.20Q206.20 1.20 206.20-4.60Q206.20-10.50 212.60-10.50Q219.20-10.50 219.20-4.60Q219.20 1.20 212.60 1.20M254.10 1.30Q246.50 1.30 242.35-3.10Q238.20-7.50 236.60-14L235-14L235.50 0L227.30 0L227.30-25.50L227.30-70L236.50-70L236.50-53.80Q236.50-50 235.95-45.45Q235.40-40.90 234.60-36.70L236.40-36.70Q237.50-40.90 239.60-44.60Q241.70-48.30 245.25-50.60Q248.80-52.90 254.10-52.90Q260.60-52.90 265.30-49.45Q270-46 272.50-39.85Q275-33.70 275-25.70Q275-17.90 272.55-11.80Q270.10-5.70 265.45-2.20Q260.80 1.30 254.10 1.30M251.90-6.70Q258.20-6.70 261.85-11.80Q265.50-16.90 265.50-25.60Q265.50-31.20 263.90-35.55Q262.30-39.90 259.30-42.45Q256.30-45 251.90-45Q247.90-45 245-43.05Q242.10-41.10 240.20-38.15Q238.30-35.20 237.35-32Q236.40-28.80 236.40-26.20L236.40-25Q236.40-22 237.45-18.80Q238.50-15.60 240.50-12.85Q242.50-10.10 245.40-8.40Q248.30-6.70 251.90-6.70M302.80 1.30Q285.40 1.30 285.40-22.60L285.40-51.70L294.60-51.70L294.60-23.40Q294.60-15 297.20-10.90Q299.80-6.80 305.40-6.80Q311.60-6.80 315.35-12.65Q319.10-18.50 320-27.60L320-51.70L329.10-51.70L329.10-21.60L329.10 0L321 0L321.80-16.60L320.30-16.60Q318.40-7.30 313.95-3Q309.50 1.30 302.80 1.30M352.10 0L343 0L343-51.70L352.10-51.70L352.10 0M347.60-60.70Q341.20-60.70 341.20-65.90Q341.20-71.10 347.60-71.10Q353.90-71.10 353.90-65.90Q353.90-60.70 347.60-60.70M375 0L365.90 0L365.90-70L375-70L375 0M406.90 1.30Q400.30 1.30 395.60-2.20Q390.90-5.70 388.45-11.80Q386-17.90 386-25.80Q386-33.60 388.40-39.75Q390.80-45.90 395.40-49.40Q400-52.90 406.70-52.90Q412.20-52.90 415.70-50.60Q419.20-48.30 421.30-44.60Q423.40-40.90 424.50-36.70L426.30-36.70Q425.60-41 425-45.90Q424.40-50.80 424.40-54.40L424.40-70L433.60-70L433.60-25.50L433.60 0L425.40 0L425.90-14L424.30-14Q422.50-7.20 418.40-2.95Q414.30 1.30 406.90 1.30M409-6.70Q412.70-6.70 415.55-8.40Q418.40-10.10 420.40-12.85Q422.40-15.60 423.45-18.80Q424.50-22 424.50-25L424.50-26.20Q424.50-28.80 423.60-32Q422.70-35.20 420.80-38.15Q418.90-41.10 416.05-43.05Q413.20-45 409.20-45Q404.70-45 401.65-42.45Q398.60-39.90 397.05-35.50Q395.50-31.10 395.50-25.60Q395.50-17 399.05-11.85Q402.60-6.70 409-6.70M469.60 1.30Q457.40 1.30 451-5.90Q444.60-13.10 444.60-25Q444.60-33.10 447.45-39.45Q450.30-45.80 455.70-49.40Q461.10-53 468.80-53Q475.60-53 480.75-49.90Q485.90-46.80 488.60-40.50Q491.30-34.20 490.90-24.60L453.50-24.30Q453.70-15.50 457.80-10.85Q461.90-6.20 469.80-6.20Q476.10-6.20 479.25-9.05Q482.40-11.90 483.60-16.10L491.60-14.20Q489.70-7 484.25-2.85Q478.80 1.30 469.60 1.30M468.80-45.30Q462.90-45.30 458.95-41.40Q455-37.50 453.90-30.50L482.30-30.70Q481.90-38 478.15-41.65Q474.40-45.30 468.80-45.30M510.90 0L501.80 0L501.80-28L501.80-51.70L510-51.70L509.20-33.70L510.90-33.70Q512.30-42.40 515.95-47.70Q519.60-53 526.60-53Q527.60-53 528.90-52.85Q530.20-52.70 531.90-52.10L531.40-42.60Q528.20-43.70 525.50-43.70Q521.60-43.70 518.75-41.20Q515.90-38.70 514-34.45Q512.10-30.20 510.90-24.90L510.90 0M558.70 1.30Q547.90 1.30 542.10-3.15Q536.30-7.60 536.20-14.90L543.90-16.90Q543.60-11.90 547.75-9Q551.90-6.10 559.20-6.10Q565.10-6.10 568.35-8.10Q571.60-10.10 571.60-13.60Q571.60-16.30 569.80-17.85Q568-19.40 564.80-20.35Q561.60-21.30 557.40-22.20Q553.80-23 550.20-24Q546.60-25 543.65-26.65Q540.70-28.30 538.90-30.95Q537.10-33.60 537.10-37.70Q537.10-44.70 542.60-48.85Q548.10-53 557.70-53Q567.20-53 572.60-48.70Q578-44.40 578.60-37.40L570.70-35.40Q570.60-40.40 566.95-43Q563.30-45.60 557.30-45.60Q551.90-45.60 548.85-43.60Q545.80-41.60 545.80-38.10Q545.80-35.50 547.65-33.90Q549.50-32.30 552.70-31.35Q555.90-30.40 559.80-29.60Q565.10-28.50 569.75-27.05Q574.40-25.60 577.35-22.65Q580.30-19.70 580.30-14.20Q580.30-6.50 574.35-2.60Q568.40 1.30 558.70 1.30" fill="#000000" fill-opacity="1"/>
</svg>
