<?xml version="1.0" encoding="UTF-8"?><svg id="b" xmlns="http://www.w3.org/2000/svg" xmlns:xlink="http://www.w3.org/1999/xlink" viewBox="0 0 1351.06 266.04"><defs><linearGradient id="d" x1="-18.45" y1="221.8" x2="189.22" y2="26.42" gradientUnits="userSpaceOnUse"><stop offset=".19" stop-color="#a5ebef"/><stop offset=".48" stop-color="#6483ff"/><stop offset=".78" stop-color="#6483ff"/><stop offset="1" stop-color="#0e6cea"/></linearGradient><linearGradient id="e" x1="-76.06" y1="153.08" x2="131.54" y2="-42.23" xlink:href="#d"/><linearGradient id="f" x1="-33.26" y1="222.96" x2="190.19" y2="12.72" xlink:href="#d"/><linearGradient id="g" x1="16.12" y1="275.45" x2="239.58" y2="65.21" xlink:href="#d"/></defs><g id="c"><path d="M87.41,214.01H11.86c-6.55,0-11.86-6.16-11.86-13.76v-87.61c65.84,5.16,82.96,25.01,87.41,101.37Z" style="fill:url(#d);"/><path d="M11.86,7.65h75.55C82.96,84.01,65.84,103.86,0,109.02V21.41C0,13.81,5.31,7.65,11.86,7.65Z" style="fill:url(#e);"/><path d="M91.03,7.66c55.54.96,100.39,45.81,101.35,101.35-76.35-5.16-96.19-25-101.35-101.35Z" style="fill:url(#f);"/><path d="M192.38,112.65c-.48,27.77-11.93,52.87-30.2,71.14-18.28,18.28-43.38,29.73-71.15,30.21,5.16-76.35,25-96.19,101.35-101.35Z" style="fill:url(#g);"/><path d="M339.51,194.18h-55.41V30.66h56.53c16.23,0,30.19,3.26,41.88,9.78,11.68,6.52,20.67,15.88,26.95,28.07,6.28,12.19,9.42,26.78,9.42,43.75s-3.15,31.67-9.46,43.92c-6.31,12.24-15.38,21.64-27.23,28.18-11.84,6.55-26.07,9.82-42.68,9.82ZM313.72,168.55h24.35c11.39,0,20.89-2.09,28.5-6.27,7.61-4.18,13.33-10.43,17.17-18.76,3.83-8.33,5.75-18.75,5.75-31.26s-1.92-22.9-5.75-31.18c-3.83-8.28-9.49-14.48-16.97-18.6-7.48-4.12-16.75-6.19-27.83-6.19h-25.23v112.26Z" style="fill:#2d2d2d;"/><path d="M431.76,194.18v-122.64h28.03v20.44h1.28c2.24-7.08,6.08-12.55,11.54-16.41,5.46-3.86,11.7-5.79,18.72-5.79,1.6,0,3.39.07,5.39.2,2,.13,3.66.33,4.99.6v26.59c-1.23-.43-3.15-.81-5.79-1.16-2.63-.35-5.18-.52-7.62-.52-5.27,0-9.99,1.13-14.17,3.39-4.18,2.26-7.47,5.39-9.86,9.38s-3.59,8.6-3.59,13.81v72.1h-28.9Z" style="fill:#2d2d2d;"/><path d="M556.19,196.58c-12.3,0-22.9-2.57-31.82-7.71-8.92-5.14-15.77-12.43-20.56-21.88-4.79-9.45-7.19-20.59-7.19-33.42s2.41-23.7,7.23-33.25c4.82-9.55,11.56-17.01,20.24-22.36,8.68-5.35,18.87-8.02,30.58-8.02,7.56,0,14.7,1.21,21.44,3.63,6.73,2.42,12.7,6.16,17.88,11.22,5.19,5.06,9.27,11.49,12.26,19.28,2.98,7.8,4.47,17.07,4.47,27.83v8.86h-100.52v-19.48h72.82c-.05-5.54-1.25-10.47-3.59-14.81-2.34-4.34-5.6-7.76-9.78-10.26-4.18-2.5-9.04-3.75-14.57-3.75-5.91,0-11.1,1.42-15.57,4.27-4.47,2.85-7.94,6.58-10.42,11.18-2.48,4.6-3.74,9.65-3.79,15.13v17.01c0,7.13,1.3,13.24,3.91,18.32,2.61,5.08,6.25,8.97,10.94,11.66,4.68,2.69,10.17,4.03,16.45,4.03,4.2,0,8.01-.6,11.42-1.8,3.41-1.2,6.36-2.97,8.86-5.31,2.5-2.34,4.39-5.24,5.67-8.7l26.99,3.03c-1.7,7.13-4.94,13.35-9.7,18.64-4.76,5.3-10.85,9.4-18.24,12.3-7.4,2.9-15.86,4.35-25.39,4.35Z" style="fill:#2d2d2d;"/><path d="M656.51,196.66c-7.77,0-14.76-1.4-20.96-4.19-6.2-2.79-11.1-6.93-14.69-12.42-3.59-5.48-5.39-12.24-5.39-20.28,0-6.92,1.28-12.64,3.83-17.17,2.56-4.52,6.04-8.14,10.46-10.86,4.42-2.71,9.41-4.78,14.97-6.19,5.56-1.41,11.32-2.44,17.29-3.07,7.19-.74,13.01-1.42,17.49-2.04,4.47-.61,7.73-1.57,9.78-2.87,2.05-1.3,3.07-3.34,3.07-6.11v-.48c0-6.01-1.78-10.67-5.35-13.97-3.57-3.3-8.7-4.95-15.41-4.95-7.08,0-12.68,1.54-16.81,4.63-4.13,3.09-6.91,6.73-8.34,10.94l-26.99-3.83c2.13-7.45,5.64-13.69,10.54-18.72,4.9-5.03,10.89-8.81,17.96-11.34,7.08-2.53,14.9-3.79,23.48-3.79,5.91,0,11.79.69,17.64,2.08s11.21,3.66,16.05,6.83c4.84,3.17,8.74,7.46,11.7,12.89,2.96,5.43,4.43,12.22,4.43,20.36v82.08h-27.79v-16.85h-.96c-1.76,3.41-4.22,6.59-7.38,9.54-3.17,2.95-7.13,5.32-11.9,7.11-4.76,1.78-10.34,2.68-16.73,2.68ZM664.01,175.42c5.8,0,10.83-1.16,15.09-3.47,4.26-2.31,7.54-5.39,9.86-9.22,2.31-3.83,3.47-8.01,3.47-12.54v-14.45c-.91.75-2.44,1.44-4.59,2.08-2.16.64-4.57,1.2-7.23,1.68-2.66.48-5.3.91-7.9,1.28-2.61.37-4.87.69-6.79.96-4.31.59-8.17,1.54-11.58,2.88-3.41,1.33-6.1,3.18-8.06,5.55-1.97,2.37-2.95,5.42-2.95,9.14,0,5.32,1.94,9.34,5.83,12.06,3.89,2.71,8.84,4.07,14.85,4.07Z" style="fill:#2d2d2d;"/><path d="M736.46,194.18v-122.64h27.63v20.84h1.44c2.56-7.03,6.79-12.52,12.7-16.49,5.91-3.96,12.96-5.95,21.16-5.95s15.32,2.01,21.04,6.03c5.72,4.02,9.75,9.49,12.1,16.41h1.28c2.71-6.81,7.31-12.26,13.77-16.33,6.47-4.07,14.15-6.11,23.04-6.11,11.28,0,20.49,3.57,27.63,10.7,7.13,7.13,10.7,17.54,10.7,31.22v82.32h-28.98v-77.85c0-7.61-2.02-13.19-6.07-16.73-4.05-3.54-9-5.31-14.85-5.31-6.97,0-12.42,2.17-16.33,6.51-3.91,4.34-5.87,9.97-5.87,16.89v76.49h-28.34v-79.05c0-6.33-1.9-11.39-5.71-15.17-3.81-3.78-8.77-5.67-14.89-5.67-4.15,0-7.93,1.05-11.34,3.15-3.41,2.1-6.12,5.06-8.14,8.86-2.02,3.81-3.03,8.24-3.03,13.29v74.58h-28.9Z" style="fill:#2d2d2d;"/><path d="M1021.3,103.96l-26.35,2.87c-.75-2.66-2.04-5.16-3.87-7.5-1.84-2.34-4.3-4.23-7.38-5.67-3.09-1.44-6.87-2.16-11.34-2.16-6.02,0-11.06,1.31-15.13,3.91s-6.08,5.99-6.03,10.14c-.05,3.57,1.26,6.47,3.95,8.7,2.69,2.24,7.15,4.07,13.37,5.51l20.92,4.47c11.6,2.5,20.24,6.47,25.91,11.9,5.67,5.43,8.53,12.54,8.58,21.32-.05,7.72-2.3,14.52-6.75,20.4-4.45,5.88-10.61,10.47-18.48,13.77-7.88,3.3-16.93,4.95-27.15,4.95-15.01,0-27.09-3.15-36.25-9.46-9.16-6.31-14.61-15.1-16.37-26.39l28.18-2.71c1.28,5.54,3.99,9.71,8.14,12.54,4.15,2.82,9.55,4.23,16.21,4.23s12.39-1.41,16.57-4.23c4.18-2.82,6.27-6.31,6.27-10.46,0-3.51-1.35-6.41-4.03-8.7-2.69-2.29-6.85-4.04-12.5-5.27l-20.92-4.39c-11.76-2.45-20.47-6.59-26.11-12.42-5.64-5.83-8.44-13.21-8.38-22.16-.05-7.56,2.01-14.12,6.19-19.68,4.18-5.56,10.01-9.87,17.49-12.93,7.48-3.06,16.12-4.59,25.91-4.59,14.37,0,25.7,3.06,33.97,9.18,8.28,6.12,13.4,14.4,15.37,24.83Z" style="fill:#2d2d2d;"/><path d="M1062.77,122.32v71.86h-28.9V30.66h28.27v61.72h1.44c2.88-6.92,7.33-12.39,13.37-16.41,6.04-4.02,13.75-6.03,23.12-6.03,8.52,0,15.94,1.78,22.28,5.35,6.33,3.57,11.24,8.78,14.73,15.65,3.49,6.87,5.23,15.25,5.23,25.15v78.09h-28.9v-73.62c0-8.25-2.12-14.68-6.35-19.28-4.23-4.6-10.15-6.91-17.77-6.91-5.11,0-9.67,1.11-13.69,3.31-4.02,2.21-7.16,5.39-9.42,9.54-2.26,4.15-3.39,9.18-3.39,15.09Z" style="fill:#2d2d2d;"/><path d="M1211.23,196.58c-11.98,0-22.36-2.63-31.14-7.9-8.78-5.27-15.58-12.64-20.4-22.12-4.82-9.47-7.23-20.55-7.23-33.21s2.41-23.77,7.23-33.29c4.82-9.53,11.62-16.93,20.4-22.2,8.78-5.27,19.16-7.9,31.14-7.9s22.36,2.63,31.14,7.9c8.78,5.27,15.58,12.67,20.4,22.2s7.23,20.63,7.23,33.29-2.41,23.74-7.23,33.21-11.62,16.85-20.4,22.12c-8.78,5.27-19.16,7.9-31.14,7.9ZM1211.39,173.42c6.49,0,11.92-1.8,16.29-5.39,4.36-3.59,7.62-8.42,9.78-14.49,2.16-6.07,3.23-12.83,3.23-20.28s-1.08-14.3-3.23-20.4c-2.16-6.09-5.42-10.95-9.78-14.57-4.37-3.62-9.79-5.43-16.29-5.43s-12.18,1.81-16.57,5.43c-4.39,3.62-7.67,8.48-9.82,14.57-2.16,6.1-3.23,12.89-3.23,20.4s1.08,14.21,3.23,20.28c2.16,6.07,5.43,10.9,9.82,14.49,4.39,3.59,9.91,5.39,16.57,5.39Z" style="fill:#2d2d2d;"/><path d="M1341.72,71.54v22.36h-70.5v-22.36h70.5ZM1288.63,42.16h28.9v115.14c0,3.89.6,6.85,1.8,8.9,1.2,2.05,2.78,3.45,4.75,4.19,1.97.75,4.15,1.12,6.55,1.12,1.81,0,3.47-.13,4.99-.4,1.52-.27,2.67-.5,3.47-.72l4.87,22.6c-1.54.53-3.74,1.12-6.59,1.76-2.85.64-6.32,1.01-10.42,1.12-7.24.21-13.76-.89-19.56-3.31-5.8-2.42-10.39-6.19-13.77-11.3-3.38-5.11-5.04-11.5-4.99-19.16V42.16Z" style="fill:#2d2d2d;"/></g></svg>