<svg width="152" height="31" viewBox="0 0 152 31" fill="none" xmlns="http://www.w3.org/2000/svg">
<path d="M30 23.8C30 24.8667 30.1867 25.7733 30.56 26.52C30.96 27.24 31.6667 27.6 32.68 27.6H32.92C33.32 27.6 33.52 27.8 33.52 28.2V29.4C33.52 29.8 33.32 30 32.92 30H20.64C20.24 30 20.04 29.8 20.04 29.4V28.2C20.04 27.8 20.24 27.6 20.64 27.6H20.88C21.8933 27.6 22.6 27.24 23 26.52C23.4 25.7733 23.6 24.8667 23.6 23.8V16.2H9.92V23.8C9.92 24.8667 10.12 25.7733 10.52 26.52C10.92 27.24 11.6267 27.6 12.64 27.6H12.88C13.28 27.6 13.48 27.8 13.48 28.2V29.4C13.48 29.8 13.28 30 12.88 30H0.6C0.2 30 0 29.8 0 29.4V28.2C0 27.8 0.2 27.6 0.6 27.6H0.84C1.85333 27.6 2.54667 27.24 2.92 26.52C3.32 25.7733 3.52 24.8667 3.52 23.8V6.2C3.52 5.13333 3.32 4.24 2.92 3.52C2.54667 2.77333 1.85333 2.4 0.84 2.4H0.6C0.2 2.4 0 2.2 0 1.8V0.600002C0 0.200001 0.2 0 0.6 0H12.88C13.28 0 13.48 0.200001 13.48 0.600002V1.8C13.48 2.2 13.28 2.4 12.88 2.4H12.64C11.6267 2.4 10.92 2.77333 10.52 3.52C10.12 4.24 9.92 5.13333 9.92 6.2V13.04H23.6V6.2C23.6 5.13333 23.4 4.24 23 3.52C22.6 2.77333 21.8933 2.4 20.88 2.4H20.64C20.24 2.4 20.04 2.2 20.04 1.8V0.600002C20.04 0.200001 20.24 0 20.64 0H32.92C33.32 0 33.52 0.200001 33.52 0.600002V1.8C33.52 2.2 33.32 2.4 32.92 2.4H32.68C31.6667 2.4 30.96 2.77333 30.56 3.52C30.1867 4.24 30 5.13333 30 6.2V23.8Z" fill="black"/>
<path d="M40.1359 22.84C40.5893 23.96 41.3093 24.96 42.2959 25.84C43.3093 26.72 44.5893 27.16 46.1359 27.16C46.9893 27.16 47.8826 26.92 48.8159 26.44C49.7493 25.96 50.5626 25.2133 51.2559 24.2C51.3359 24.0667 51.4426 24 51.5759 24C51.7093 24 51.8426 24.04 51.9759 24.12C52.1359 24.2 52.5359 24.4267 53.1759 24.8C53.2826 24.88 53.3359 24.9867 53.3359 25.12C53.3359 25.3067 53.2559 25.5333 53.0959 25.8C52.3493 27.1867 51.3359 28.32 50.0559 29.2C48.7759 30.08 47.1093 30.52 45.0559 30.52C42.8426 30.52 40.9359 30.0267 39.3359 29.04C37.7359 28.0533 36.4959 26.7467 35.6159 25.12C34.7626 23.4933 34.3359 21.72 34.3359 19.8C34.3359 17.96 34.6026 16.3867 35.1359 15.08C35.6959 13.7467 36.4293 12.68 37.3359 11.88C38.2426 11.0533 39.2559 10.4533 40.3759 10.08C41.5226 9.68 42.6826 9.48 43.8559 9.48C45.1893 9.48 46.3626 9.74667 47.3759 10.28C48.3893 10.7867 49.2426 11.44 49.9359 12.24C50.6559 13.04 51.1893 13.8933 51.5359 14.8C51.9093 15.68 52.0959 16.5067 52.0959 17.28C52.0959 17.4933 51.9759 17.6533 51.7359 17.76L40.1359 22.84ZM46.0959 17.12C46.0959 15.84 45.7893 14.7867 45.1759 13.96C44.5626 13.1333 43.7893 12.72 42.8559 12.72C41.7626 12.72 40.8959 13.16 40.2559 14.04C39.6159 14.8933 39.2959 15.9733 39.2959 17.28C39.2959 17.68 39.3093 18.1733 39.3359 18.76C39.3893 19.3467 39.4959 19.88 39.6559 20.36L46.0959 17.12Z" fill="black"/>
<path d="M62.9619 14.2C63.6819 12.6533 64.6819 11.48 65.9619 10.68C67.2419 9.88 68.5885 9.48 70.0019 9.48C71.2552 9.48 72.3219 9.82667 73.2019 10.52C74.0819 11.2133 74.5219 12.24 74.5219 13.6C74.5219 14.1867 74.4685 14.7067 74.3619 15.16C74.2552 15.6133 73.9619 15.9467 73.4819 16.16L69.7219 17.68C69.5619 17.7333 69.4419 17.76 69.3619 17.76C69.1219 17.76 69.0019 17.64 69.0019 17.4C69.0019 17.32 69.0285 17.2 69.0819 17.04C69.2419 16.6667 69.3352 16.3067 69.3619 15.96C69.4152 15.6133 69.4419 15.3067 69.4419 15.04C69.4419 14.32 69.2552 13.8 68.8819 13.48C68.5352 13.1333 68.0952 12.96 67.5619 12.96C66.9485 12.96 66.3752 13.1467 65.8419 13.52C65.3085 13.8933 64.8419 14.3467 64.4419 14.88C64.0419 15.4133 63.7485 15.9333 63.5619 16.44V23.8C63.5619 24.8667 63.8019 25.7733 64.2819 26.52C64.7619 27.24 65.4952 27.6 66.4819 27.6H66.5619C66.9619 27.6 67.1619 27.8 67.1619 28.2V29.4C67.1619 29.8 66.9619 30 66.5619 30H54.9219C54.5219 30 54.3219 29.8 54.3219 29.4V28.2C54.3219 27.8 54.5219 27.6 54.9219 27.6H55.0019C55.9885 27.6 56.7219 27.24 57.2019 26.52C57.6819 25.7733 57.9219 24.8667 57.9219 23.8V18.76C57.9219 18.04 57.8685 17.3467 57.7619 16.68C57.6819 16.0133 57.4819 15.4533 57.1619 15C56.8419 14.52 56.3085 14.24 55.5619 14.16C55.2419 14.1333 55.0819 13.96 55.0819 13.64V12.28C55.0819 12.0133 55.2819 11.84 55.6819 11.76C57.5752 11.4667 59.2285 11 60.6419 10.36C62.0819 9.72 63.0552 9.21333 63.5619 8.84C63.6419 8.78667 63.7085 8.76 63.7619 8.76H63.8419C63.8952 8.76 63.9219 8.78667 63.9219 8.84C63.9219 8.86667 63.8819 9.06667 63.8019 9.44C63.7485 9.81334 63.6685 10.2933 63.5619 10.88C63.4819 11.44 63.3752 12.0267 63.2419 12.64C63.1352 13.2267 63.0419 13.7467 62.9619 14.2Z" fill="black"/>
<path d="M115.056 27.6C115.456 27.6 115.656 27.8 115.656 28.2V29.4C115.656 29.8 115.456 30 115.056 30H103.776C103.376 30 103.176 29.8 103.176 29.4V28.2C103.176 27.8 103.376 27.6 103.776 27.6H103.976C104.829 27.6 105.389 27.2933 105.656 26.68C105.922 26.04 106.056 25.08 106.056 23.8V16.96C106.056 16.24 105.989 15.5867 105.856 15C105.749 14.3867 105.482 13.9067 105.056 13.56C104.656 13.1867 104.029 13 103.176 13C102.029 13 101.016 13.36 100.136 14.08C99.2823 14.8 98.5623 15.7067 97.9756 16.8V23.8C97.9756 25.2667 98.2023 26.2667 98.6556 26.8C99.1356 27.3333 99.7623 27.6 100.536 27.6H100.856C101.256 27.6 101.456 27.8 101.456 28.2V29.4C101.456 29.8 101.256 30 100.856 30H89.9756C89.5756 30 89.3756 29.8 89.3756 29.4V28.2C89.3756 27.8 89.5756 27.6 89.9756 27.6H90.2556C90.8156 27.6 91.309 27.3333 91.7356 26.8C92.1623 26.2667 92.3756 25.2667 92.3756 23.8V16.96C92.3756 15.68 92.2023 14.7067 91.8556 14.04C91.5356 13.3467 90.749 13 89.4956 13C88.829 13 88.1623 13.1733 87.4956 13.52C86.829 13.84 86.2423 14.2667 85.7356 14.8C85.229 15.3067 84.8556 15.8533 84.6156 16.44V23.8C84.6156 24.8667 84.8423 25.7733 85.2956 26.52C85.7756 27.24 86.4023 27.6 87.1756 27.6H87.2556C87.6556 27.6 87.8556 27.8 87.8556 28.2V29.4C87.8556 29.8 87.6556 30 87.2556 30H76.0156C75.6156 30 75.4156 29.8 75.4156 29.4V28.2C75.4156 27.8 75.6156 27.6 76.0156 27.6H76.0956C77.0823 27.6 77.8156 27.24 78.2956 26.52C78.7756 25.7733 79.0156 24.8667 79.0156 23.8V18.76C79.0156 18.04 78.9623 17.3467 78.8556 16.68C78.7756 16.0133 78.5623 15.4533 78.2156 15C77.8956 14.52 77.3623 14.24 76.6156 14.16C76.3223 14.1333 76.1756 13.96 76.1756 13.64V12.28C76.1756 12.0133 76.3623 11.84 76.7356 11.76C78.6556 11.4667 80.2956 11.0133 81.6556 10.4C83.0423 9.78667 84.0023 9.29333 84.5356 8.92C84.669 8.81334 84.7756 8.76 84.8556 8.76H84.8956C84.949 8.76 84.9756 8.78667 84.9756 8.84C84.9756 8.89333 84.9623 9 84.9356 9.16L84.2556 14.08C84.629 13.4667 85.1223 12.8133 85.7356 12.12C86.349 11.4 87.109 10.7867 88.0156 10.28C88.9223 9.74667 89.9756 9.48 91.1756 9.48C93.149 9.48 94.6156 9.85334 95.5756 10.6C96.5356 11.32 97.189 12.2533 97.5356 13.4C98.4423 12.2267 99.4956 11.28 100.696 10.56C101.922 9.84 103.322 9.48 104.896 9.48C106.336 9.48 107.496 9.70667 108.376 10.16C109.282 10.5867 109.976 11.1733 110.456 11.92C110.936 12.64 111.256 13.4667 111.416 14.4C111.602 15.3067 111.696 16.24 111.696 17.2V23.8C111.696 24.8667 111.936 25.7733 112.416 26.52C112.922 27.24 113.656 27.6 114.616 27.6H115.056Z" fill="black"/>
<path d="M121.698 22.84C122.152 23.96 122.872 24.96 123.858 25.84C124.872 26.72 126.152 27.16 127.698 27.16C128.552 27.16 129.445 26.92 130.378 26.44C131.312 25.96 132.125 25.2133 132.818 24.2C132.898 24.0667 133.005 24 133.138 24C133.272 24 133.405 24.04 133.538 24.12C133.698 24.2 134.098 24.4267 134.738 24.8C134.845 24.88 134.898 24.9867 134.898 25.12C134.898 25.3067 134.818 25.5333 134.658 25.8C133.912 27.1867 132.898 28.32 131.618 29.2C130.338 30.08 128.672 30.52 126.618 30.52C124.405 30.52 122.498 30.0267 120.898 29.04C119.298 28.0533 118.058 26.7467 117.178 25.12C116.325 23.4933 115.898 21.72 115.898 19.8C115.898 17.96 116.165 16.3867 116.698 15.08C117.258 13.7467 117.992 12.68 118.898 11.88C119.805 11.0533 120.818 10.4533 121.938 10.08C123.085 9.68 124.245 9.48 125.418 9.48C126.752 9.48 127.925 9.74667 128.938 10.28C129.952 10.7867 130.805 11.44 131.498 12.24C132.218 13.04 132.752 13.8933 133.098 14.8C133.472 15.68 133.658 16.5067 133.658 17.28C133.658 17.4933 133.538 17.6533 133.298 17.76L121.698 22.84ZM127.658 17.12C127.658 15.84 127.352 14.7867 126.738 13.96C126.125 13.1333 125.352 12.72 124.418 12.72C123.325 12.72 122.458 13.16 121.818 14.04C121.178 14.8933 120.858 15.9733 120.858 17.28C120.858 17.68 120.872 18.1733 120.898 18.76C120.952 19.3467 121.058 19.88 121.218 20.36L127.658 17.12Z" fill="black"/>
<path d="M151.164 27.12C151.244 27.2267 151.284 27.3467 151.284 27.48C151.284 27.64 151.178 27.7867 150.964 27.92L149.764 28.68C149.044 29.1333 148.178 29.56 147.164 29.96C146.151 30.3333 145.138 30.52 144.124 30.52C143.324 30.52 142.564 30.3333 141.844 29.96C141.151 29.5867 140.591 28.96 140.164 28.08C139.738 27.1733 139.524 25.9333 139.524 24.36V16.96C139.524 16.24 139.484 15.5333 139.404 14.84C139.324 14.12 139.071 13.5333 138.644 13.08C138.244 12.6267 137.564 12.4 136.604 12.4C136.204 12.4 136.004 12.2 136.004 11.8V10.6C136.004 10.2 136.204 10 136.604 10H139.524V7.32C139.524 6.97333 139.644 6.73333 139.884 6.6C140.471 6.28 141.244 5.84 142.204 5.28C143.164 4.69333 144.018 4.02667 144.764 3.28C144.818 3.22667 144.884 3.2 144.964 3.2H145.044C145.098 3.2 145.124 3.24 145.124 3.32V10H150.484C150.884 10 151.084 10.2 151.084 10.6V12.32C151.084 12.72 150.884 12.92 150.484 12.92H145.124V24.36C145.124 25.4 145.284 26.12 145.604 26.52C145.924 26.8933 146.324 27.08 146.804 27.08C147.258 27.08 147.738 26.96 148.244 26.72C148.751 26.4533 149.218 26.1867 149.644 25.92C149.831 25.8133 149.978 25.76 150.084 25.76C150.244 25.76 150.391 25.8667 150.524 26.08L151.164 27.12Z" fill="black"/>
</svg>
