<svg xmlns="http://www.w3.org/2000/svg" fill="none" viewBox="243 281 874.12 800.71">
<path d="M1075.99 281.598C1052.41 285.444 1023.15 312.029 993.393 356.504L976.338 382.085L972.493 368.208C961.458 327.077 953.934 309.688 938.217 289.958C933.535 283.939 930.358 281.598 927.516 281.598C925.175 281.598 904.442 284.942 881.034 289.122C857.794 293.302 838.398 296.646 837.897 296.646C837.395 296.646 837.061 299.656 837.061 303.334V309.855H854.282C884.211 309.855 897.922 317.212 908.622 338.948C915.645 353.16 937.715 437.596 935.876 442.612C928.519 461.673 880.366 534.237 863.813 551.125C848.263 567.009 845.922 567.343 831.878 556.809C820.174 548.115 812.315 545.105 803.621 546.276C790.245 548.115 780.882 560.989 782.219 575.87C783.724 591.42 794.926 600.95 813.653 602.121C837.395 603.793 858.462 589.413 887.555 551.292C897.754 538.083 919.323 505.312 931.529 484.412C937.046 474.881 942.062 467.19 942.564 467.19C943.066 467.19 944.738 473.377 946.41 480.901C951.593 504.977 964.3 556.141 968.48 569.349C972.994 583.729 982.692 596.436 992.055 600.281C1000.08 603.793 1010.78 603.124 1020.14 598.609C1038.2 590.249 1068.97 558.481 1084.68 532.231C1088.2 526.212 1091.2 520.861 1091.2 520.193C1091.2 519.189 1082.34 514.006 1080.5 514.006C1080 514.006 1076.32 519.022 1072.31 525.209C1058.27 546.945 1040.88 562.494 1031.01 562.494C1025.33 562.494 1020.14 556.977 1016.8 547.446C1011.78 533.736 982.358 407.834 983.194 404.323C984.866 397.635 1014.63 354.832 1024.83 344.465C1035.53 333.597 1046.4 326.742 1053.25 326.742C1055.26 326.742 1063.45 328.581 1071.31 330.922C1088.2 335.938 1094.72 336.105 1104.08 331.925C1113.78 327.411 1117.12 321.726 1117.12 309.186C1117.12 300.492 1116.45 297.984 1112.61 292.968C1105.75 283.939 1090.87 279.257 1075.99 281.598Z" fill="white"/>
<path d="M544.461 546.945C508.847 552.964 482.764 563.999 446.649 588.076C421.903 604.629 409.531 615.162 383.113 641.747C343.821 681.039 314.059 723.341 287.809 777.346C249.186 856.432 234.974 931.839 247.347 992.031C255.707 1031.66 283.127 1065.77 316.735 1077.8C330.278 1082.65 361.043 1082.65 379.769 1077.8C433.775 1063.76 486.443 1023.13 549.979 946.553C562.184 932.006 572.216 920.804 572.55 921.807C572.885 922.643 571.547 928.495 569.708 934.849C554.326 986.848 548.139 1023.8 551.149 1043.53C554.66 1065.1 564.525 1075.97 584.589 1080.15C632.742 1090.18 693.269 1051.39 748.11 975.311C753.795 967.453 758.477 960.263 758.477 959.26C758.477 958.257 754.464 954.913 749.448 951.569L740.252 945.549L723.866 966.617C704.973 991.028 684.742 1011.93 673.874 1018.28C663.173 1024.47 653.81 1024.47 648.626 1017.95C641.938 1009.42 641.938 1001.23 648.961 972.301C652.305 957.922 668.356 900.238 684.407 844.226C700.458 788.047 715.005 737.385 716.677 731.366C718.516 725.347 730.722 682.377 744.098 635.728C757.474 589.079 768.509 549.62 768.509 548.282C768.509 546.276 767.171 545.941 762.322 546.61C758.811 547.112 738.914 550.121 718.014 553.131C697.114 556.141 679.558 558.983 678.89 559.485C678.388 560.153 673.874 573.362 669.025 589.079C664.176 604.629 659.327 618.673 658.491 620.178C657.321 622.352 655.816 619.677 651.636 608.809C642.607 584.565 627.894 566.005 611.675 557.645C595.624 549.453 580.576 545.774 564.191 545.941C555.663 546.109 546.802 546.61 544.461 546.945ZM584.756 578.378C603.148 582.893 617.527 595.098 626.222 613.657C638.26 638.905 638.26 695.92 626.222 746.414C613.682 799.918 590.441 848.072 550.48 903.582C508.68 961.768 469.555 996.044 428.257 1010.59C415.048 1015.27 411.704 1015.77 400.502 1015.1C369.737 1013.1 345.995 990.693 337.802 955.916C335.628 946.887 335.294 939.029 335.963 917.794C336.966 889.872 337.635 886.026 345.827 851.917C360.374 791.893 396.823 715.482 435.614 663.65C450.996 643.252 479.086 614.661 496.14 602.121C511.355 590.918 528.911 581.889 540.281 579.381C563.522 574.198 566.866 574.198 584.756 578.378Z" fill="white"/>
</svg>