<svg xmlns="http://www.w3.org/2000/svg" width="479" height="149" viewBox="0 0 479 149" fill="none" id="svg-253672058_9386">
<path fill-rule="evenodd" clip-rule="evenodd" d="M321.866 122.329C314.244 129.951 304.981 133.762 294.074 133.762C285.461 133.762 278.459 131.16 273.068 125.954C267.863 120.997 264.733 114.243 263.68 105.691C259.466 109.533 255.067 111.454 250.481 111.454C248.746 111.454 247.197 111.083 245.834 110.339C244.78 109.781 243.882 109.007 243.138 108.015C241.403 105.66 240.845 102.159 241.465 97.5119C241.837 94.5375 243.014 89.7041 244.997 83.0118L245.555 80.9669L246.206 78.7361C246.701 76.9391 247.104 75.3899 247.414 74.0886C248.219 70.4946 248.529 68.0779 248.343 66.8386C243.82 67.0864 238.832 71.2692 233.378 79.3867C227.863 87.5663 223.65 97.0781 220.737 107.922L214.974 106.342C211.071 109.75 207.26 111.454 203.542 111.454C200.01 111.454 197.128 109.998 194.897 107.086C190.994 102.004 190.498 94.0108 193.41 83.1047L197.779 66.8386H186.904V57.2648H200.381L205.401 38.489L214.696 40.9986L210.327 57.2648H224.362L235.33 16.46L244.625 18.9696L232.077 65.6302C237.654 60.0533 243.2 57.2648 248.715 57.2648C250.45 57.2648 251.999 57.6366 253.363 58.3802C254.354 58.9379 255.222 59.6815 255.965 60.611C257.762 62.9657 258.351 66.4978 257.731 71.2072C257.359 73.9957 256.182 78.829 254.199 85.7073L253.641 87.7522L252.991 89.89C252.495 91.687 252.092 93.2362 251.782 94.5375C250.915 98.1316 250.574 100.579 250.76 101.881C253.425 101.757 256.058 100.145 258.661 97.0471C261.635 93.639 263.928 88.9915 265.539 83.1047C267.398 76.0406 270.682 70.1228 275.392 65.3514C280.659 59.9603 286.67 57.2648 293.424 57.2648C297.204 57.2648 300.302 58.4731 302.719 60.8898C305.135 63.3065 306.406 66.4358 306.53 70.2777C306.654 76.8461 303.865 82.7019 298.164 87.8451C291.844 93.608 283.416 96.8922 272.882 97.6978C272.572 105.815 274.245 112.26 277.901 117.031C281.557 121.803 286.948 124.188 294.074 124.188C302.254 124.188 309.225 121.307 314.988 115.544L321.866 122.329ZM203.542 101.881C204.223 101.881 205.091 101.571 206.144 100.951C207.446 100.207 208.716 99.185 209.955 97.8837C213.239 94.2896 215.749 89.3633 217.484 83.1047L221.853 66.8386H207.724L202.705 85.6143C201.652 89.6422 201.156 93.1123 201.218 96.0247C201.28 98.5033 201.714 100.269 202.519 101.323C202.829 101.695 203.17 101.881 203.542 101.881ZM293.424 66.8386C289.086 66.8386 285.12 68.8525 281.526 72.8803C278.428 76.3504 276.197 80.5951 274.834 85.6143L274.462 86.7297L274.183 87.9381C281.495 87.0086 287.289 84.6539 291.565 80.8739C295.221 77.5897 296.987 74.1506 296.863 70.5565C296.801 68.9454 296.336 67.861 295.469 67.3033C295.097 67.1174 294.694 66.9935 294.26 66.9315L293.796 66.8386H293.424Z" fill="#F5F3E7"/>
<path d="M414.121 103.109C413.334 104.031 412.509 104.891 411.645 105.691C407.493 109.533 403.093 111.454 398.446 111.454C396.711 111.454 395.162 111.083 393.798 110.339C392.807 109.781 391.939 109.007 391.196 108.015C389.399 105.66 388.81 102.159 389.43 97.5119C389.801 94.7234 390.979 89.89 392.962 83.0118C394.325 78.1784 395.255 74.3365 395.75 71.486C396.122 69.2552 396.184 67.7061 395.936 66.8386C392.032 66.9625 387.973 70.6185 383.76 77.8066C379.546 85.0567 375.766 94.8473 372.42 107.179L372.234 107.922L362.939 105.413C363.063 105.041 363.125 104.793 363.125 104.669L368.981 83.0118C370.406 78.1784 371.336 74.3365 371.769 71.486C372.079 69.2552 372.11 67.7061 371.862 66.8386C367.958 66.9625 363.9 70.6805 359.686 77.9925C355.41 85.3665 351.599 95.3431 348.253 107.922L338.958 105.413L350.949 60.7969L359.035 62.9347C363.063 59.1547 367.401 57.2648 372.048 57.2648C377.005 57.2648 380.073 59.7744 381.25 64.7937C385.836 59.7744 390.762 57.2648 396.029 57.2648C399.251 57.2648 401.73 58.4112 403.465 60.7039C405.138 62.9967 405.82 66.2499 405.51 70.4636C405.2 73.9337 404.085 79.0149 402.164 85.7073L401.606 87.7522L400.955 89.89C400.46 91.687 400.088 93.2362 399.84 94.5375C398.972 98.1316 398.632 100.579 398.818 101.881C401.42 101.757 404.054 100.145 406.718 97.0471C409.693 93.639 411.954 88.9915 413.504 83.1047L413.53 83.1118L413.532 83.1047L419.481 60.7969L428.776 63.3065L422.827 85.6143C422.083 88.4028 421.711 91.0364 421.711 93.5151C421.711 99.092 423.973 101.881 428.497 101.881C435.747 101.881 441.045 95.6839 444.391 83.2906V83.1047L450.433 60.7969L459.635 63.3065L453.686 85.6143C452.695 89.3943 452.199 92.3997 452.199 94.6304C452.199 95.1881 452.23 95.8078 452.292 96.4894C452.354 97.4189 452.478 98.2245 452.664 98.9061C453.097 100.889 453.81 101.881 454.801 101.881C455.421 101.881 456.227 101.571 457.218 100.951C458.458 100.207 459.697 99.185 460.936 97.8837C464.282 94.2277 466.792 89.3014 468.465 83.1047L477.76 85.6143C475.591 93.608 472.152 100.022 467.443 104.855C463.167 109.255 458.891 111.454 454.616 111.454C452.323 111.454 450.247 110.773 448.388 109.409C446.467 108.108 445.135 106.435 444.391 104.39C439.991 109.1 434.693 111.454 428.497 111.454C423.23 111.454 419.14 109.719 416.227 106.249C415.404 105.297 414.702 104.251 414.121 103.109Z" fill="#F5F3E7"/>
<path d="M434.631 41.6493C431.781 41.6493 428.032 43.0125 423.385 45.739L428.218 54.0115C430.511 52.7103 432.463 52.0596 434.074 52.0596C434.879 52.0596 435.654 52.2145 436.397 52.5243L438.442 53.4538C440.239 54.4453 441.851 54.941 443.276 54.941C446.064 54.941 449.813 53.5778 454.523 50.8513L449.689 42.5788C447.149 44.004 445.104 44.7166 443.555 44.7166C442.439 44.7166 441.045 44.1899 439.372 43.1365C438.566 42.6407 437.885 42.2999 437.327 42.114C436.459 41.8042 435.561 41.6493 434.631 41.6493Z" fill="#F5F3E7"/>
<path fill-rule="evenodd" clip-rule="evenodd" d="M75.7394 140.16C118.171 140.749 145.186 109.629 145.664 75.2655C145.897 58.4829 137.99 41.7045 125.143 28.9318C112.304 16.1664 95.0903 7.97101 77.5781 7.72788C41.3905 7.22545 8.75972 35.0134 8.29539 68.4574C7.80853 103.523 33.9643 139.58 75.7394 140.16ZM79.9423 69.8656C76.0396 76.6066 71.3318 84.1857 66.3862 90.2613L76.773 95.5762L73.4056 102.157L58.8099 94.6882C57.7746 94.1585 57.049 93.1723 56.8513 92.0263C56.6536 90.8803 57.0068 89.708 57.8047 88.8619C63.2622 83.0753 68.8246 74.3152 73.5449 66.1618C75.5808 62.6452 77.4261 59.3025 79.019 56.4169C79.2581 55.9838 79.4919 55.5602 79.7194 55.1487C81.4051 52.0992 82.8803 49.4544 83.8853 48.0273L89.9291 52.2837C89.2147 53.2981 87.9727 55.498 86.1888 58.725C85.98 59.1028 85.7653 59.4918 85.5448 59.8912L85.5357 59.9077L85.5239 59.929L85.5086 59.9568L85.4945 59.9824C83.9031 62.8653 82.0191 66.2783 79.9423 69.8656ZM40.151 39.0967C38.5512 41.0326 37.5109 43.8956 37.4007 46.4109L37.2388 50.1034L29.8537 49.7797L30.0156 46.0871C30.1913 42.0796 31.7584 37.6482 34.4527 34.3878C37.2113 31.0497 41.5796 28.542 46.9054 29.9581C49.7768 30.7216 51.7295 32.548 52.8764 34.8009C53.8939 36.7993 54.2405 39.0404 54.305 41.0661C56.0582 40.1951 58.1177 39.5993 60.2949 39.7545C62.7171 39.9272 64.9769 41.0134 66.7749 43.0504C70.4414 47.2045 69.9048 52.3856 68.2161 56.2478C66.5416 60.0775 63.4021 63.5514 60.0695 65.3173L56.8035 67.0478L53.3425 60.5159L56.6085 58.7854C58.3296 57.8734 60.3733 55.7331 61.4431 53.2863C62.4987 50.872 62.2676 49.1146 61.2327 47.9421C60.68 47.3159 60.2036 47.159 59.7691 47.128C59.2281 47.0894 58.4336 47.2407 57.424 47.7734C55.3335 48.8764 53.3562 51.0688 52.4946 52.9529L45.5538 50.495C46.137 48.2277 46.9739 44.6599 46.9223 41.5396C46.8966 39.9826 46.6491 38.8622 46.2888 38.1546C45.9989 37.5851 45.6508 37.2736 45.0059 37.1021C43.2989 36.6482 41.6865 37.2386 40.151 39.0967ZM107.319 64.9396L108.746 61.5301L101.927 58.6758L100.5 62.0852C99.0366 65.5809 97.7066 70.1336 98.3671 74.6094C99.08 79.4408 102.036 83.6511 107.958 86.1289C110.988 87.3967 113.915 87.6702 116.648 87.0739C119.343 86.486 121.594 85.11 123.419 83.4785C126.99 80.287 129.328 75.7613 130.695 72.4941L123.876 69.6406C122.648 72.5746 120.828 75.8802 118.493 77.967C117.366 78.9747 116.228 79.5996 115.073 79.8516C113.956 80.095 112.574 80.0472 110.811 79.3096C107.148 77.7767 105.994 75.661 105.68 73.5303C105.313 71.0441 106.038 67.9988 107.319 64.9396ZM54.6223 119.104C61.5285 123.654 70.4607 127.312 80.2966 127.449C99.4999 127.716 110.609 118.393 114.32 109.524L115.747 106.114L108.928 103.261L107.501 106.671C105.118 112.366 97.0319 120.288 80.3992 120.057C72.3169 119.945 64.741 116.918 58.6895 112.931C52.5587 108.891 48.4162 104.152 46.9398 101.109L40.2893 104.336C42.53 108.954 47.7952 114.605 54.6223 119.104ZM121.744 46.9809C119.885 46.2031 117.068 46.0691 113.293 46.579L114.188 53.2927C116.038 53.0697 117.488 53.1781 118.539 53.6177C119.064 53.8375 119.527 54.1499 119.928 54.5549L121.008 55.719C121.909 56.856 122.824 57.6189 123.754 58.0078C125.572 58.7687 128.389 58.9027 132.204 58.4097L131.31 51.696C129.264 51.9322 127.736 51.8389 126.726 51.4162C125.998 51.1118 125.233 50.3879 124.429 49.2443C124.039 48.7012 123.688 48.293 123.375 48.0196C122.893 47.5808 122.35 47.2346 121.744 46.9809Z" fill="#F5F3E7"/>
<path fill-rule="evenodd" clip-rule="evenodd" d="M75.6368 147.551C122.281 148.199 152.523 113.683 153.055 75.3681C153.587 37.0536 117.115 0.883917 77.6807 0.336417C38.2466 -0.211083 1.43588 30.0403 0.903925 68.3548C0.371971 106.669 28.9929 146.904 75.6368 147.551ZM145.664 75.2655C145.186 109.629 118.171 140.749 75.7394 140.16C33.9643 139.58 7.80853 103.523 8.29539 68.4574C8.75972 35.0134 41.3905 7.22545 77.5781 7.72788C95.0903 7.97101 112.304 16.1664 125.143 28.9318C137.99 41.7045 145.897 58.4829 145.664 75.2655Z" fill="#F5F3E7" fill-opacity="0.21"/>
</svg>
