<svg xmlns="http://www.w3.org/2000/svg" xmlns:xlink="http://www.w3.org/1999/xlink" viewBox="0 0 116 32"><g><defs><radialGradient id="urbeGrad" cy="1" cx="0" r="1.08" gradientTransform="translate(0, 1) scale(1 1.6203703703703702) translate(-0, -1)"><stop offset="0" stop-color="rgb(204,43,94)" stop-opacity="1"></stop><stop offset="1" stop-color="rgb(117,58,136)" stop-opacity="1"></stop></radialGradient></defs><path d="M 3.953 7.629 L 3.953 7.629 L 3.953 7.629 Z M 3.953 7.629 L 4.176 1 L 7.874 4.613 Z M 13.959 22.009 L 13.166 22.544 L 9.559 20.971 L 8.006 16.729 L 2.514 14.308 L 4.7 14.308 L 0 12.635 L 4.509 10.646 L 1.421 10.962 L 8.767 5.896 L 13.959 11.237 L 13.959 19.687 L 12.346 19.687 L 11.991 20.137 L 13.613 21.772 L 13.959 21.772 Z M 12.305 13.92 L 10.461 11.941 L 7.742 11.512 L 9.304 12.896 L 10.643 12.783 Z M 29.259 23.013 L 25.29 23.013 L 25.29 21.239 C 24.888 21.815 24.338 22.282 23.642 22.64 C 22.961 22.982 22.203 23.153 21.368 23.153 C 20.377 23.153 19.503 22.935 18.745 22.5 C 17.987 22.048 17.399 21.403 16.981 20.562 C 16.563 19.722 16.354 18.733 16.354 17.598 L 16.354 9.987 L 20.3 9.987 L 20.3 17.061 C 20.3 17.932 20.524 18.609 20.973 19.092 C 21.422 19.574 22.025 19.815 22.783 19.815 C 23.557 19.815 24.168 19.574 24.617 19.092 C 25.065 18.609 25.29 17.932 25.29 17.061 L 25.29 9.987 L 29.259 9.987 Z M 36.078 12.158 C 36.542 11.443 37.122 10.882 37.819 10.478 C 38.515 10.057 39.288 9.847 40.139 9.847 L 40.139 14.073 L 39.049 14.073 C 38.058 14.073 37.316 14.29 36.821 14.726 C 36.325 15.146 36.078 15.893 36.078 16.967 L 36.078 23.013 L 32.109 23.013 L 32.109 9.987 L 36.078 9.987 Z M 46.005 11.832 C 46.376 11.225 46.91 10.734 47.607 10.361 C 48.303 9.987 49.1 9.801 49.997 9.801 C 51.065 9.801 52.032 10.073 52.898 10.618 C 53.765 11.162 54.445 11.94 54.94 12.952 C 55.451 13.964 55.706 15.139 55.706 16.477 C 55.706 17.815 55.451 18.998 54.94 20.025 C 54.445 21.037 53.765 21.823 52.898 22.383 C 52.032 22.928 51.065 23.2 49.997 23.2 C 49.084 23.2 48.287 23.021 47.607 22.663 C 46.926 22.29 46.392 21.799 46.005 21.192 L 46.005 23.013 L 42.036 23.013 L 42.036 5.739 L 46.005 5.739 Z M 51.668 16.477 C 51.668 15.481 51.39 14.703 50.833 14.143 C 50.291 13.567 49.618 13.279 48.813 13.279 C 48.024 13.279 47.351 13.567 46.794 14.143 C 46.253 14.718 45.982 15.504 45.982 16.5 C 45.982 17.496 46.253 18.282 46.794 18.858 C 47.351 19.434 48.024 19.722 48.813 19.722 C 49.602 19.722 50.276 19.434 50.833 18.858 C 51.39 18.267 51.668 17.473 51.668 16.477 Z M 69.996 16.29 C 69.996 16.664 69.973 17.053 69.927 17.457 L 60.945 17.457 C 61.007 18.267 61.262 18.889 61.711 19.325 C 62.175 19.745 62.74 19.955 63.405 19.955 C 64.395 19.955 65.084 19.535 65.471 18.695 L 69.695 18.695 C 69.478 19.551 69.083 20.321 68.511 21.006 C 67.954 21.69 67.25 22.227 66.399 22.616 C 65.548 23.005 64.596 23.2 63.544 23.2 C 62.275 23.2 61.146 22.928 60.156 22.383 C 59.165 21.838 58.392 21.06 57.835 20.049 C 57.278 19.037 56.999 17.854 56.999 16.5 C 56.999 15.146 57.27 13.964 57.812 12.952 C 58.369 11.94 59.142 11.162 60.133 10.618 C 61.123 10.073 62.26 9.801 63.544 9.801 C 64.797 9.801 65.911 10.065 66.886 10.594 C 67.861 11.123 68.619 11.878 69.161 12.859 C 69.718 13.839 69.996 14.983 69.996 16.29 Z M 65.935 15.24 C 65.935 14.555 65.703 14.01 65.238 13.606 C 64.774 13.201 64.194 12.999 63.498 12.999 C 62.832 12.999 62.268 13.193 61.804 13.582 C 61.355 13.971 61.076 14.524 60.968 15.24 Z M 73.947 23.2 C 73.25 23.2 72.678 22.998 72.229 22.593 C 71.796 22.173 71.579 21.659 71.579 21.052 C 71.579 20.43 71.796 19.909 72.229 19.488 C 72.678 19.068 73.25 18.858 73.947 18.858 C 74.627 18.858 75.184 19.068 75.618 19.488 C 76.066 19.909 76.291 20.43 76.291 21.052 C 76.291 21.659 76.066 22.173 75.618 22.593 C 75.184 22.998 74.627 23.2 73.947 23.2 Z M 90.848 16.29 C 90.848 16.664 90.825 17.053 90.778 17.457 L 81.796 17.457 C 81.858 18.267 82.114 18.889 82.562 19.325 C 83.026 19.745 83.591 19.955 84.256 19.955 C 85.247 19.955 85.935 19.535 86.322 18.695 L 90.546 18.695 C 90.329 19.551 89.935 20.321 89.362 21.006 C 88.805 21.69 88.101 22.227 87.25 22.616 C 86.399 23.005 85.448 23.2 84.396 23.2 C 83.127 23.2 81.998 22.928 81.007 22.383 C 80.017 21.838 79.243 21.06 78.686 20.049 C 78.129 19.037 77.851 17.854 77.851 16.5 C 77.851 15.146 78.122 13.964 78.663 12.952 C 79.22 11.94 79.994 11.162 80.984 10.618 C 81.974 10.073 83.112 9.801 84.396 9.801 C 85.649 9.801 86.763 10.065 87.738 10.594 C 88.713 11.123 89.471 11.878 90.012 12.859 C 90.569 13.839 90.848 14.983 90.848 16.29 Z M 86.786 15.24 C 86.786 14.555 86.554 14.01 86.09 13.606 C 85.626 13.201 85.046 12.999 84.349 12.999 C 83.684 12.999 83.119 13.193 82.655 13.582 C 82.206 13.971 81.928 14.524 81.82 15.24 Z M 100.159 19.628 L 100.159 23.013 L 98.14 23.013 C 96.701 23.013 95.58 22.663 94.775 21.963 C 93.97 21.247 93.568 20.087 93.568 18.485 L 93.568 13.302 L 91.99 13.302 L 91.99 9.987 L 93.568 9.987 L 93.568 6.813 L 97.537 6.813 L 97.537 9.987 L 100.136 9.987 L 100.136 13.302 L 97.537 13.302 L 97.537 18.531 C 97.537 18.92 97.63 19.2 97.815 19.372 C 98.001 19.543 98.31 19.628 98.744 19.628 Z M 110.331 9.847 C 111.816 9.847 113.007 10.345 113.905 11.341 C 114.802 12.322 115.251 13.676 115.251 15.403 L 115.251 23.013 L 111.305 23.013 L 111.305 15.94 C 111.305 15.069 111.081 14.392 110.632 13.909 C 110.184 13.427 109.58 13.186 108.822 13.186 C 108.064 13.186 107.46 13.427 107.012 13.909 C 106.563 14.392 106.339 15.069 106.339 15.94 L 106.339 23.013 L 102.37 23.013 L 102.37 5.739 L 106.339 5.739 L 106.339 11.738 C 106.741 11.162 107.29 10.703 107.987 10.361 C 108.683 10.019 109.464 9.847 110.331 9.847 Z" fill="url(#urbeGrad)"></path></g></svg>