<svg xmlns="http://www.w3.org/2000/svg" width="56.00mm" height="56.00mm" viewBox="-32.16 -32.16 600.32 600.32">
  <!-- 3mm bleed: white extends past the cut -->
  <rect x="-32.16" y="-32.16" width="600.32" height="600.32" rx="84.16" fill="#ffffff"/>
  <rect width="536" height="536" rx="52" fill="#ffffff"/>
  <rect x="18" y="18" width="500" height="500" rx="40" fill="#1a342b"/>
  <rect x="58" y="58" width="420" height="420" rx="18" fill="#f6f5f0"/>
  <rect x="94" y="94" width="12" height="12" fill="#1a342b"/><rect x="106" y="94" width="12" height="12" fill="#1a342b"/><rect x="118" y="94" width="12" height="12" fill="#1a342b"/><rect x="130" y="94" width="12" height="12" fill="#1a342b"/><rect x="142" y="94" width="12" height="12" fill="#1a342b"/><rect x="154" y="94" width="12" height="12" fill="#1a342b"/><rect x="166" y="94" width="12" height="12" fill="#1a342b"/><rect x="202" y="94" width="12" height="12" fill="#1a342b"/><rect x="214" y="94" width="12" height="12" fill="#1a342b"/><rect x="226" y="94" width="12" height="12" fill="#1a342b"/><rect x="238" y="94" width="12" height="12" fill="#1a342b"/><rect x="262" y="94" width="12" height="12" fill="#1a342b"/><rect x="274" y="94" width="12" height="12" fill="#1a342b"/><rect x="286" y="94" width="12" height="12" fill="#1a342b"/><rect x="310" y="94" width="12" height="12" fill="#1a342b"/><rect x="334" y="94" width="12" height="12" fill="#1a342b"/><rect x="358" y="94" width="12" height="12" fill="#1a342b"/><rect x="370" y="94" width="12" height="12" fill="#1a342b"/><rect x="382" y="94" width="12" height="12" fill="#1a342b"/><rect x="394" y="94" width="12" height="12" fill="#1a342b"/><rect x="406" y="94" width="12" height="12" fill="#1a342b"/><rect x="418" y="94" width="12" height="12" fill="#1a342b"/><rect x="430" y="94" width="12" height="12" fill="#1a342b"/><rect x="94" y="106" width="12" height="12" fill="#1a342b"/><rect x="166" y="106" width="12" height="12" fill="#1a342b"/><rect x="238" y="106" width="12" height="12" fill="#1a342b"/><rect x="274" y="106" width="12" height="12" fill="#1a342b"/><rect x="298" y="106" width="12" height="12" fill="#1a342b"/><rect x="310" y="106" width="12" height="12" fill="#1a342b"/><rect x="322" y="106" width="12" height="12" fill="#1a342b"/><rect x="334" y="106" width="12" height="12" fill="#1a342b"/><rect x="358" y="106" width="12" height="12" fill="#1a342b"/><rect x="430" y="106" width="12" height="12" fill="#1a342b"/><rect x="94" y="118" width="12" height="12" fill="#1a342b"/><rect x="118" y="118" width="12" height="12" fill="#1a342b"/><rect x="130" y="118" width="12" height="12" fill="#1a342b"/><rect x="142" y="118" width="12" height="12" fill="#1a342b"/><rect x="166" y="118" width="12" height="12" fill="#1a342b"/><rect x="214" y="118" width="12" height="12" fill="#1a342b"/><rect x="238" y="118" width="12" height="12" fill="#1a342b"/><rect x="250" y="118" width="12" height="12" fill="#1a342b"/><rect x="274" y="118" width="12" height="12" fill="#1a342b"/><rect x="334" y="118" width="12" height="12" fill="#1a342b"/><rect x="358" y="118" width="12" height="12" fill="#1a342b"/><rect x="382" y="118" width="12" height="12" fill="#1a342b"/><rect x="394" y="118" width="12" height="12" fill="#1a342b"/><rect x="406" y="118" width="12" height="12" fill="#1a342b"/><rect x="430" y="118" width="12" height="12" fill="#1a342b"/><rect x="94" y="130" width="12" height="12" fill="#1a342b"/><rect x="118" y="130" width="12" height="12" fill="#1a342b"/><rect x="130" y="130" width="12" height="12" fill="#1a342b"/><rect x="142" y="130" width="12" height="12" fill="#1a342b"/><rect x="166" y="130" width="12" height="12" fill="#1a342b"/><rect x="202" y="130" width="12" height="12" fill="#1a342b"/><rect x="214" y="130" width="12" height="12" fill="#1a342b"/><rect x="226" y="130" width="12" height="12" fill="#1a342b"/><rect x="262" y="130" width="12" height="12" fill="#1a342b"/><rect x="286" y="130" width="12" height="12" fill="#1a342b"/><rect x="298" y="130" width="12" height="12" fill="#1a342b"/><rect x="310" y="130" width="12" height="12" fill="#1a342b"/><rect x="322" y="130" width="12" height="12" fill="#1a342b"/><rect x="358" y="130" width="12" height="12" fill="#1a342b"/><rect x="382" y="130" width="12" height="12" fill="#1a342b"/><rect x="394" y="130" width="12" height="12" fill="#1a342b"/><rect x="406" y="130" width="12" height="12" fill="#1a342b"/><rect x="430" y="130" width="12" height="12" fill="#1a342b"/><rect x="94" y="142" width="12" height="12" fill="#1a342b"/><rect x="118" y="142" width="12" height="12" fill="#1a342b"/><rect x="130" y="142" width="12" height="12" fill="#1a342b"/><rect x="142" y="142" width="12" height="12" fill="#1a342b"/><rect x="166" y="142" width="12" height="12" fill="#1a342b"/><rect x="190" y="142" width="12" height="12" fill="#1a342b"/><rect x="238" y="142" width="12" height="12" fill="#1a342b"/><rect x="250" y="142" width="12" height="12" fill="#1a342b"/><rect x="262" y="142" width="12" height="12" fill="#1a342b"/><rect x="298" y="142" width="12" height="12" fill="#1a342b"/><rect x="322" y="142" width="12" height="12" fill="#1a342b"/><rect x="358" y="142" width="12" height="12" fill="#1a342b"/><rect x="382" y="142" width="12" height="12" fill="#1a342b"/><rect x="394" y="142" width="12" height="12" fill="#1a342b"/><rect x="406" y="142" width="12" height="12" fill="#1a342b"/><rect x="430" y="142" width="12" height="12" fill="#1a342b"/><rect x="94" y="154" width="12" height="12" fill="#1a342b"/><rect x="166" y="154" width="12" height="12" fill="#1a342b"/><rect x="202" y="154" width="12" height="12" fill="#1a342b"/><rect x="226" y="154" width="12" height="12" fill="#1a342b"/><rect x="262" y="154" width="12" height="12" fill="#1a342b"/><rect x="274" y="154" width="12" height="12" fill="#1a342b"/><rect x="286" y="154" width="12" height="12" fill="#1a342b"/><rect x="322" y="154" width="12" height="12" fill="#1a342b"/><rect x="334" y="154" width="12" height="12" fill="#1a342b"/><rect x="358" y="154" width="12" height="12" fill="#1a342b"/><rect x="430" y="154" width="12" height="12" fill="#1a342b"/><rect x="94" y="166" width="12" height="12" fill="#1a342b"/><rect x="106" y="166" width="12" height="12" fill="#1a342b"/><rect x="118" y="166" width="12" height="12" fill="#1a342b"/><rect x="130" y="166" width="12" height="12" fill="#1a342b"/><rect x="142" y="166" width="12" height="12" fill="#1a342b"/><rect x="154" y="166" width="12" height="12" fill="#1a342b"/><rect x="166" y="166" width="12" height="12" fill="#1a342b"/><rect x="190" y="166" width="12" height="12" fill="#1a342b"/><rect x="214" y="166" width="12" height="12" fill="#1a342b"/><rect x="238" y="166" width="12" height="12" fill="#1a342b"/><rect x="262" y="166" width="12" height="12" fill="#1a342b"/><rect x="286" y="166" width="12" height="12" fill="#1a342b"/><rect x="310" y="166" width="12" height="12" fill="#1a342b"/><rect x="334" y="166" width="12" height="12" fill="#1a342b"/><rect x="358" y="166" width="12" height="12" fill="#1a342b"/><rect x="370" y="166" width="12" height="12" fill="#1a342b"/><rect x="382" y="166" width="12" height="12" fill="#1a342b"/><rect x="394" y="166" width="12" height="12" fill="#1a342b"/><rect x="406" y="166" width="12" height="12" fill="#1a342b"/><rect x="418" y="166" width="12" height="12" fill="#1a342b"/><rect x="430" y="166" width="12" height="12" fill="#1a342b"/><rect x="190" y="178" width="12" height="12" fill="#1a342b"/><rect x="202" y="178" width="12" height="12" fill="#1a342b"/><rect x="226" y="178" width="12" height="12" fill="#1a342b"/><rect x="286" y="178" width="12" height="12" fill="#1a342b"/><rect x="298" y="178" width="12" height="12" fill="#1a342b"/><rect x="310" y="178" width="12" height="12" fill="#1a342b"/><rect x="334" y="178" width="12" height="12" fill="#1a342b"/><rect x="118" y="190" width="12" height="12" fill="#1a342b"/><rect x="130" y="190" width="12" height="12" fill="#1a342b"/><rect x="166" y="190" width="12" height="12" fill="#1a342b"/><rect x="178" y="190" width="12" height="12" fill="#1a342b"/><rect x="190" y="190" width="12" height="12" fill="#1a342b"/><rect x="226" y="190" width="12" height="12" fill="#1a342b"/><rect x="238" y="190" width="12" height="12" fill="#1a342b"/><rect x="262" y="190" width="12" height="12" fill="#1a342b"/><rect x="274" y="190" width="12" height="12" fill="#1a342b"/><rect x="322" y="190" width="12" height="12" fill="#1a342b"/><rect x="334" y="190" width="12" height="12" fill="#1a342b"/><rect x="346" y="190" width="12" height="12" fill="#1a342b"/><rect x="358" y="190" width="12" height="12" fill="#1a342b"/><rect x="382" y="190" width="12" height="12" fill="#1a342b"/><rect x="118" y="202" width="12" height="12" fill="#1a342b"/><rect x="130" y="202" width="12" height="12" fill="#1a342b"/><rect x="190" y="202" width="12" height="12" fill="#1a342b"/><rect x="202" y="202" width="12" height="12" fill="#1a342b"/><rect x="226" y="202" width="12" height="12" fill="#1a342b"/><rect x="250" y="202" width="12" height="12" fill="#1a342b"/><rect x="286" y="202" width="12" height="12" fill="#1a342b"/><rect x="358" y="202" width="12" height="12" fill="#1a342b"/><rect x="370" y="202" width="12" height="12" fill="#1a342b"/><rect x="382" y="202" width="12" height="12" fill="#1a342b"/><rect x="394" y="202" width="12" height="12" fill="#1a342b"/><rect x="430" y="202" width="12" height="12" fill="#1a342b"/><rect x="94" y="214" width="12" height="12" fill="#1a342b"/><rect x="106" y="214" width="12" height="12" fill="#1a342b"/><rect x="118" y="214" width="12" height="12" fill="#1a342b"/><rect x="130" y="214" width="12" height="12" fill="#1a342b"/><rect x="154" y="214" width="12" height="12" fill="#1a342b"/><rect x="166" y="214" width="12" height="12" fill="#1a342b"/><rect x="190" y="214" width="12" height="12" fill="#1a342b"/><rect x="202" y="214" width="12" height="12" fill="#1a342b"/><rect x="214" y="214" width="12" height="12" fill="#1a342b"/><rect x="226" y="214" width="12" height="12" fill="#1a342b"/><rect x="310" y="214" width="12" height="12" fill="#1a342b"/><rect x="358" y="214" width="12" height="12" fill="#1a342b"/><rect x="394" y="214" width="12" height="12" fill="#1a342b"/><rect x="406" y="214" width="12" height="12" fill="#1a342b"/><rect x="418" y="214" width="12" height="12" fill="#1a342b"/><rect x="118" y="226" width="12" height="12" fill="#1a342b"/><rect x="178" y="226" width="12" height="12" fill="#1a342b"/><rect x="214" y="226" width="12" height="12" fill="#1a342b"/><rect x="310" y="226" width="12" height="12" fill="#1a342b"/><rect x="322" y="226" width="12" height="12" fill="#1a342b"/><rect x="370" y="226" width="12" height="12" fill="#1a342b"/><rect x="430" y="226" width="12" height="12" fill="#1a342b"/><rect x="94" y="238" width="12" height="12" fill="#1a342b"/><rect x="106" y="238" width="12" height="12" fill="#1a342b"/><rect x="118" y="238" width="12" height="12" fill="#1a342b"/><rect x="142" y="238" width="12" height="12" fill="#1a342b"/><rect x="154" y="238" width="12" height="12" fill="#1a342b"/><rect x="166" y="238" width="12" height="12" fill="#1a342b"/><rect x="178" y="238" width="12" height="12" fill="#1a342b"/><rect x="346" y="238" width="12" height="12" fill="#1a342b"/><rect x="370" y="238" width="12" height="12" fill="#1a342b"/><rect x="406" y="238" width="12" height="12" fill="#1a342b"/><rect x="418" y="238" width="12" height="12" fill="#1a342b"/><rect x="430" y="238" width="12" height="12" fill="#1a342b"/><rect x="94" y="250" width="12" height="12" fill="#1a342b"/><rect x="130" y="250" width="12" height="12" fill="#1a342b"/><rect x="154" y="250" width="12" height="12" fill="#1a342b"/><rect x="190" y="250" width="12" height="12" fill="#1a342b"/><rect x="322" y="250" width="12" height="12" fill="#1a342b"/><rect x="358" y="250" width="12" height="12" fill="#1a342b"/><rect x="370" y="250" width="12" height="12" fill="#1a342b"/><rect x="394" y="250" width="12" height="12" fill="#1a342b"/><rect x="406" y="250" width="12" height="12" fill="#1a342b"/><rect x="418" y="250" width="12" height="12" fill="#1a342b"/><rect x="430" y="250" width="12" height="12" fill="#1a342b"/><rect x="94" y="262" width="12" height="12" fill="#1a342b"/><rect x="154" y="262" width="12" height="12" fill="#1a342b"/><rect x="166" y="262" width="12" height="12" fill="#1a342b"/><rect x="190" y="262" width="12" height="12" fill="#1a342b"/><rect x="322" y="262" width="12" height="12" fill="#1a342b"/><rect x="334" y="262" width="12" height="12" fill="#1a342b"/><rect x="358" y="262" width="12" height="12" fill="#1a342b"/><rect x="370" y="262" width="12" height="12" fill="#1a342b"/><rect x="382" y="262" width="12" height="12" fill="#1a342b"/><rect x="394" y="262" width="12" height="12" fill="#1a342b"/><rect x="418" y="262" width="12" height="12" fill="#1a342b"/><rect x="430" y="262" width="12" height="12" fill="#1a342b"/><rect x="94" y="274" width="12" height="12" fill="#1a342b"/><rect x="106" y="274" width="12" height="12" fill="#1a342b"/><rect x="130" y="274" width="12" height="12" fill="#1a342b"/><rect x="154" y="274" width="12" height="12" fill="#1a342b"/><rect x="178" y="274" width="12" height="12" fill="#1a342b"/><rect x="334" y="274" width="12" height="12" fill="#1a342b"/><rect x="346" y="274" width="12" height="12" fill="#1a342b"/><rect x="358" y="274" width="12" height="12" fill="#1a342b"/><rect x="382" y="274" width="12" height="12" fill="#1a342b"/><rect x="394" y="274" width="12" height="12" fill="#1a342b"/><rect x="418" y="274" width="12" height="12" fill="#1a342b"/><rect x="430" y="274" width="12" height="12" fill="#1a342b"/><rect x="94" y="286" width="12" height="12" fill="#1a342b"/><rect x="166" y="286" width="12" height="12" fill="#1a342b"/><rect x="190" y="286" width="12" height="12" fill="#1a342b"/><rect x="202" y="286" width="12" height="12" fill="#1a342b"/><rect x="322" y="286" width="12" height="12" fill="#1a342b"/><rect x="334" y="286" width="12" height="12" fill="#1a342b"/><rect x="346" y="286" width="12" height="12" fill="#1a342b"/><rect x="370" y="286" width="12" height="12" fill="#1a342b"/><rect x="382" y="286" width="12" height="12" fill="#1a342b"/><rect x="394" y="286" width="12" height="12" fill="#1a342b"/><rect x="106" y="298" width="12" height="12" fill="#1a342b"/><rect x="118" y="298" width="12" height="12" fill="#1a342b"/><rect x="142" y="298" width="12" height="12" fill="#1a342b"/><rect x="154" y="298" width="12" height="12" fill="#1a342b"/><rect x="178" y="298" width="12" height="12" fill="#1a342b"/><rect x="190" y="298" width="12" height="12" fill="#1a342b"/><rect x="202" y="298" width="12" height="12" fill="#1a342b"/><rect x="310" y="298" width="12" height="12" fill="#1a342b"/><rect x="322" y="298" width="12" height="12" fill="#1a342b"/><rect x="334" y="298" width="12" height="12" fill="#1a342b"/><rect x="346" y="298" width="12" height="12" fill="#1a342b"/><rect x="370" y="298" width="12" height="12" fill="#1a342b"/><rect x="394" y="298" width="12" height="12" fill="#1a342b"/><rect x="406" y="298" width="12" height="12" fill="#1a342b"/><rect x="94" y="310" width="12" height="12" fill="#1a342b"/><rect x="118" y="310" width="12" height="12" fill="#1a342b"/><rect x="130" y="310" width="12" height="12" fill="#1a342b"/><rect x="166" y="310" width="12" height="12" fill="#1a342b"/><rect x="178" y="310" width="12" height="12" fill="#1a342b"/><rect x="190" y="310" width="12" height="12" fill="#1a342b"/><rect x="202" y="310" width="12" height="12" fill="#1a342b"/><rect x="214" y="310" width="12" height="12" fill="#1a342b"/><rect x="226" y="310" width="12" height="12" fill="#1a342b"/><rect x="298" y="310" width="12" height="12" fill="#1a342b"/><rect x="322" y="310" width="12" height="12" fill="#1a342b"/><rect x="358" y="310" width="12" height="12" fill="#1a342b"/><rect x="382" y="310" width="12" height="12" fill="#1a342b"/><rect x="394" y="310" width="12" height="12" fill="#1a342b"/><rect x="130" y="322" width="12" height="12" fill="#1a342b"/><rect x="154" y="322" width="12" height="12" fill="#1a342b"/><rect x="178" y="322" width="12" height="12" fill="#1a342b"/><rect x="262" y="322" width="12" height="12" fill="#1a342b"/><rect x="274" y="322" width="12" height="12" fill="#1a342b"/><rect x="310" y="322" width="12" height="12" fill="#1a342b"/><rect x="322" y="322" width="12" height="12" fill="#1a342b"/><rect x="346" y="322" width="12" height="12" fill="#1a342b"/><rect x="358" y="322" width="12" height="12" fill="#1a342b"/><rect x="394" y="322" width="12" height="12" fill="#1a342b"/><rect x="406" y="322" width="12" height="12" fill="#1a342b"/><rect x="106" y="334" width="12" height="12" fill="#1a342b"/><rect x="118" y="334" width="12" height="12" fill="#1a342b"/><rect x="142" y="334" width="12" height="12" fill="#1a342b"/><rect x="154" y="334" width="12" height="12" fill="#1a342b"/><rect x="166" y="334" width="12" height="12" fill="#1a342b"/><rect x="226" y="334" width="12" height="12" fill="#1a342b"/><rect x="250" y="334" width="12" height="12" fill="#1a342b"/><rect x="310" y="334" width="12" height="12" fill="#1a342b"/><rect x="334" y="334" width="12" height="12" fill="#1a342b"/><rect x="346" y="334" width="12" height="12" fill="#1a342b"/><rect x="358" y="334" width="12" height="12" fill="#1a342b"/><rect x="370" y="334" width="12" height="12" fill="#1a342b"/><rect x="382" y="334" width="12" height="12" fill="#1a342b"/><rect x="394" y="334" width="12" height="12" fill="#1a342b"/><rect x="406" y="334" width="12" height="12" fill="#1a342b"/><rect x="418" y="334" width="12" height="12" fill="#1a342b"/><rect x="430" y="334" width="12" height="12" fill="#1a342b"/><rect x="190" y="346" width="12" height="12" fill="#1a342b"/><rect x="202" y="346" width="12" height="12" fill="#1a342b"/><rect x="214" y="346" width="12" height="12" fill="#1a342b"/><rect x="250" y="346" width="12" height="12" fill="#1a342b"/><rect x="262" y="346" width="12" height="12" fill="#1a342b"/><rect x="286" y="346" width="12" height="12" fill="#1a342b"/><rect x="310" y="346" width="12" height="12" fill="#1a342b"/><rect x="334" y="346" width="12" height="12" fill="#1a342b"/><rect x="382" y="346" width="12" height="12" fill="#1a342b"/><rect x="394" y="346" width="12" height="12" fill="#1a342b"/><rect x="418" y="346" width="12" height="12" fill="#1a342b"/><rect x="430" y="346" width="12" height="12" fill="#1a342b"/><rect x="94" y="358" width="12" height="12" fill="#1a342b"/><rect x="106" y="358" width="12" height="12" fill="#1a342b"/><rect x="118" y="358" width="12" height="12" fill="#1a342b"/><rect x="130" y="358" width="12" height="12" fill="#1a342b"/><rect x="142" y="358" width="12" height="12" fill="#1a342b"/><rect x="154" y="358" width="12" height="12" fill="#1a342b"/><rect x="166" y="358" width="12" height="12" fill="#1a342b"/><rect x="190" y="358" width="12" height="12" fill="#1a342b"/><rect x="202" y="358" width="12" height="12" fill="#1a342b"/><rect x="226" y="358" width="12" height="12" fill="#1a342b"/><rect x="238" y="358" width="12" height="12" fill="#1a342b"/><rect x="286" y="358" width="12" height="12" fill="#1a342b"/><rect x="322" y="358" width="12" height="12" fill="#1a342b"/><rect x="334" y="358" width="12" height="12" fill="#1a342b"/><rect x="358" y="358" width="12" height="12" fill="#1a342b"/><rect x="382" y="358" width="12" height="12" fill="#1a342b"/><rect x="406" y="358" width="12" height="12" fill="#1a342b"/><rect x="418" y="358" width="12" height="12" fill="#1a342b"/><rect x="94" y="370" width="12" height="12" fill="#1a342b"/><rect x="166" y="370" width="12" height="12" fill="#1a342b"/><rect x="214" y="370" width="12" height="12" fill="#1a342b"/><rect x="274" y="370" width="12" height="12" fill="#1a342b"/><rect x="286" y="370" width="12" height="12" fill="#1a342b"/><rect x="298" y="370" width="12" height="12" fill="#1a342b"/><rect x="334" y="370" width="12" height="12" fill="#1a342b"/><rect x="382" y="370" width="12" height="12" fill="#1a342b"/><rect x="94" y="382" width="12" height="12" fill="#1a342b"/><rect x="118" y="382" width="12" height="12" fill="#1a342b"/><rect x="130" y="382" width="12" height="12" fill="#1a342b"/><rect x="142" y="382" width="12" height="12" fill="#1a342b"/><rect x="166" y="382" width="12" height="12" fill="#1a342b"/><rect x="238" y="382" width="12" height="12" fill="#1a342b"/><rect x="250" y="382" width="12" height="12" fill="#1a342b"/><rect x="274" y="382" width="12" height="12" fill="#1a342b"/><rect x="286" y="382" width="12" height="12" fill="#1a342b"/><rect x="298" y="382" width="12" height="12" fill="#1a342b"/><rect x="334" y="382" width="12" height="12" fill="#1a342b"/><rect x="346" y="382" width="12" height="12" fill="#1a342b"/><rect x="358" y="382" width="12" height="12" fill="#1a342b"/><rect x="370" y="382" width="12" height="12" fill="#1a342b"/><rect x="382" y="382" width="12" height="12" fill="#1a342b"/><rect x="394" y="382" width="12" height="12" fill="#1a342b"/><rect x="406" y="382" width="12" height="12" fill="#1a342b"/><rect x="430" y="382" width="12" height="12" fill="#1a342b"/><rect x="94" y="394" width="12" height="12" fill="#1a342b"/><rect x="118" y="394" width="12" height="12" fill="#1a342b"/><rect x="130" y="394" width="12" height="12" fill="#1a342b"/><rect x="142" y="394" width="12" height="12" fill="#1a342b"/><rect x="166" y="394" width="12" height="12" fill="#1a342b"/><rect x="190" y="394" width="12" height="12" fill="#1a342b"/><rect x="202" y="394" width="12" height="12" fill="#1a342b"/><rect x="214" y="394" width="12" height="12" fill="#1a342b"/><rect x="250" y="394" width="12" height="12" fill="#1a342b"/><rect x="286" y="394" width="12" height="12" fill="#1a342b"/><rect x="310" y="394" width="12" height="12" fill="#1a342b"/><rect x="322" y="394" width="12" height="12" fill="#1a342b"/><rect x="382" y="394" width="12" height="12" fill="#1a342b"/><rect x="394" y="394" width="12" height="12" fill="#1a342b"/><rect x="418" y="394" width="12" height="12" fill="#1a342b"/><rect x="94" y="406" width="12" height="12" fill="#1a342b"/><rect x="118" y="406" width="12" height="12" fill="#1a342b"/><rect x="130" y="406" width="12" height="12" fill="#1a342b"/><rect x="142" y="406" width="12" height="12" fill="#1a342b"/><rect x="166" y="406" width="12" height="12" fill="#1a342b"/><rect x="190" y="406" width="12" height="12" fill="#1a342b"/><rect x="202" y="406" width="12" height="12" fill="#1a342b"/><rect x="238" y="406" width="12" height="12" fill="#1a342b"/><rect x="250" y="406" width="12" height="12" fill="#1a342b"/><rect x="262" y="406" width="12" height="12" fill="#1a342b"/><rect x="310" y="406" width="12" height="12" fill="#1a342b"/><rect x="334" y="406" width="12" height="12" fill="#1a342b"/><rect x="370" y="406" width="12" height="12" fill="#1a342b"/><rect x="394" y="406" width="12" height="12" fill="#1a342b"/><rect x="430" y="406" width="12" height="12" fill="#1a342b"/><rect x="94" y="418" width="12" height="12" fill="#1a342b"/><rect x="166" y="418" width="12" height="12" fill="#1a342b"/><rect x="214" y="418" width="12" height="12" fill="#1a342b"/><rect x="226" y="418" width="12" height="12" fill="#1a342b"/><rect x="238" y="418" width="12" height="12" fill="#1a342b"/><rect x="274" y="418" width="12" height="12" fill="#1a342b"/><rect x="298" y="418" width="12" height="12" fill="#1a342b"/><rect x="310" y="418" width="12" height="12" fill="#1a342b"/><rect x="346" y="418" width="12" height="12" fill="#1a342b"/><rect x="382" y="418" width="12" height="12" fill="#1a342b"/><rect x="394" y="418" width="12" height="12" fill="#1a342b"/><rect x="418" y="418" width="12" height="12" fill="#1a342b"/><rect x="94" y="430" width="12" height="12" fill="#1a342b"/><rect x="106" y="430" width="12" height="12" fill="#1a342b"/><rect x="118" y="430" width="12" height="12" fill="#1a342b"/><rect x="130" y="430" width="12" height="12" fill="#1a342b"/><rect x="142" y="430" width="12" height="12" fill="#1a342b"/><rect x="154" y="430" width="12" height="12" fill="#1a342b"/><rect x="166" y="430" width="12" height="12" fill="#1a342b"/><rect x="202" y="430" width="12" height="12" fill="#1a342b"/><rect x="238" y="430" width="12" height="12" fill="#1a342b"/><rect x="274" y="430" width="12" height="12" fill="#1a342b"/><rect x="286" y="430" width="12" height="12" fill="#1a342b"/><rect x="298" y="430" width="12" height="12" fill="#1a342b"/><rect x="334" y="430" width="12" height="12" fill="#1a342b"/><rect x="346" y="430" width="12" height="12" fill="#1a342b"/><rect x="358" y="430" width="12" height="12" fill="#1a342b"/><rect x="370" y="430" width="12" height="12" fill="#1a342b"/><rect x="418" y="430" width="12" height="12" fill="#1a342b"/>
  <circle cx="268" cy="268" r="54.84" fill="#f6f5f0"/><g transform="translate(268 268) scale(0.7) translate(-56.05 26.05)"><path d="M18.30 0L7.50 0L7.50-32.60L7.50-52L16.70-52L16.10-35.80L17.90-35.80Q21.80-53.30 34.50-53.30Q39.30-53.30 42.45-51Q45.60-48.70 47.20-44.75Q48.80-40.80 49-36L50.60-36Q52.40-44.60 56.85-48.95Q61.30-53.30 67.90-53.30Q76.10-53.30 80.30-46.80Q84.50-40.30 84.50-27.90L84.50 0L73.60 0L73.60-26.50Q73.60-43.70 64.20-43.70Q58.80-43.70 55.40-38.35Q52-33 51.30-24.60L51.30 0L40.60 0L40.60-25.80Q40.60-43.70 31.20-43.70Q27.40-43.70 24.65-41.10Q21.90-38.50 20.30-34.15Q18.70-29.80 18.30-24.30" fill="#1a342b"/><path d="M98 1.20Q91.60 1.20 91.60-4.60Q91.60-10.50 98-10.50Q104.60-10.50 104.60-4.60Q104.60 1.20 98 1.20" fill="#1a342b" fill-opacity="0.55"/></g>

  <!-- die-cut line: vector 'CutContour' in 100% magenta. cut along this; do not print it. -->
  <rect id="CutContour" x="0" y="0" width="536" height="536" rx="52" fill="none" stroke="#EC008C" stroke-width="2.68"/>
</svg>
