<svg xmlns="http://www.w3.org/2000/svg" viewBox="0 0 752.3 350.5" width="752.3" height="350.5">
  <rect width="752.3" height="350.5" rx="44" fill="#ffffff"/>
  <rect x="18" y="18" width="716.3" height="314.5" rx="30" fill="#1a342b"/>
  <g transform="translate(88 150.3)"><g transform="translate(39.4 0)"><path d="M18.70 0L6.50 0L6.50-52.60L16.70-52.60L17.70-45.60L18.40-45.60Q21.10-49.20 25.25-51.50Q29.40-53.80 35.20-53.80Q40.20-53.80 44.05-52Q47.90-50.20 50.10-46.20Q52.30-42.20 52.30-35.50L52.30 0L40 0L40-33.30Q40-38.90 37.40-41Q34.80-43.10 30.40-43.10Q25.50-43.10 22.10-39.60Q18.70-36.10 18.70-30.60L18.70 0M87.80 1.20Q74.90 1.20 68.35-5.45Q61.80-12.10 61.80-26.30Q61.80-40.50 68.35-47.15Q74.90-53.80 87.80-53.80Q100.80-53.80 107.30-47.15Q113.80-40.50 113.80-26.30Q113.80-12.10 107.30-5.45Q100.80 1.20 87.80 1.20M87.80-8.80Q95-8.80 98.10-12.95Q101.20-17.10 101.20-25.60L101.20-27Q101.20-35.40 98.10-39.60Q95-43.80 87.80-43.80Q80.60-43.80 77.50-39.60Q74.40-35.40 74.40-27L74.40-25.60Q74.40-17.10 77.50-12.95Q80.60-8.80 87.80-8.80M171.10 1.20Q166 1.20 161.80-0.85Q157.60-2.90 155-7L154.30-7L153.30 0L143.20 0L143.20-72.30L155.40-72.30L155.40-46.50L156-46.50Q160.90-53.80 171.80-53.80Q177.70-53.80 182.25-50.90Q186.80-48 189.40-41.95Q192-35.90 192-26.40Q192-12 186.40-5.40Q180.80 1.20 171.10 1.20M167.30-9.30Q174-9.30 176.70-13.30Q179.40-17.30 179.40-25.50L179.40-26.90Q179.40-35.30 176.70-39.30Q174-43.30 167.30-43.30Q161.10-43.30 158.25-39Q155.40-34.70 155.40-26.80L155.40-25.50Q155.40-17.70 158.25-13.50Q161.10-9.30 167.30-9.30M218.60 1.20Q211 1.20 206.25-2.95Q201.50-7.10 201.50-17.10L201.50-52.60L213.70-52.60L213.70-19.30Q213.70-13.80 216.30-11.65Q218.90-9.50 223.30-9.50Q228.30-9.50 231.65-13Q235-16.50 235-22L235-52.60L247.20-52.60L247.20 0L237.10 0L236.10-7L235.40-7Q232.70-3.40 228.50-1.10Q224.30 1.20 218.60 1.20M271.90 0L259.70 0L259.70-72.30L271.90-72.30L271.90 0M296.60 0L284.40 0L284.40-72.30L296.60-72.30L296.60 0M329.60 1.20Q318.30 1.20 312.45-3.45Q306.60-8.10 306.60-15.10Q306.60-15.60 306.65-16Q306.70-16.40 306.70-16.60L318.70-16.60L318.70-15.80Q318.80-11.70 322.30-10.05Q325.80-8.40 330.10-8.40Q332.70-8.40 335.05-8.95Q337.40-9.50 338.95-10.75Q340.50-12 340.50-14Q340.50-16.60 338.50-18Q336.50-19.40 333.25-20.30Q330-21.20 326.30-22.20Q323-23.10 319.70-24.20Q316.40-25.30 313.75-27Q311.10-28.70 309.45-31.40Q307.80-34.10 307.80-38.10Q307.80-43.30 310.75-46.75Q313.70-50.20 318.75-51.95Q323.80-53.70 330.20-53.70Q336.40-53.70 341.20-51.95Q346-50.20 348.70-47Q351.40-43.80 351.40-39.50Q351.40-38.80 351.35-38.10Q351.30-37.40 351.30-37.30L339.40-37.30L339.40-38Q339.40-40.80 336.85-42.50Q334.30-44.20 329.60-44.20Q324.80-44.20 322.45-42.70Q320.10-41.20 320.10-39.10Q320.10-36.30 323.35-35.10Q326.60-33.90 331.20-32.50Q334.80-31.50 338.60-30.45Q342.40-29.40 345.65-27.80Q348.90-26.20 350.90-23.30Q352.90-20.40 352.90-15.60Q352.90-9.40 349.85-5.70Q346.80-2 341.55-0.40Q336.30 1.20 329.60 1.20M374.90 0L362.70 0L362.70-72.30L374.90-72.30L374.90-46.60L375.60-46.60Q378.20-49.70 382.05-51.75Q385.90-53.80 391.40-53.80Q396.40-53.80 400.25-52Q404.10-50.20 406.30-46.20Q408.50-42.20 408.50-35.50L408.50 0L396.20 0L396.20-33.30Q396.20-38.90 393.60-41Q391-43.10 386.60-43.10Q381.70-43.10 378.30-39.60Q374.90-36.10 374.90-30.60L374.90 0M432.80-60.70L420.60-60.70L420.60-72.30L432.80-72.30L432.80-60.70M432.80 0L420.60 0L420.60-52.60L432.80-52.60L432.80 0M459.20 1.20Q454.30 1.20 451.50-0.75Q448.70-2.70 447.55-5.75Q446.40-8.80 446.40-12L446.40-42.60L440.10-42.60L440.10-52.60L446.70-52.60L448.90-67.30L458.60-67.30L458.60-52.60L467.70-52.60L467.70-42.60L458.60-42.60L458.60-13.20Q458.60-8.80 463-8.80L467.70-8.80L467.70-0.40Q466.20 0.20 463.75 0.70Q461.30 1.20 459.20 1.20M491 0L478.30 0L478.30-12.80L491-12.80" fill="#f6f5f0"/></g><g transform="translate(2.9 104)"><path d="M18.70-60.70L6.50-60.70L6.50-72.30L18.70-72.30L18.70-60.70M5.70 18.20Q3.60 18.20 1.10 17.75Q-1.40 17.30-2.90 16.70L-2.90 8.30L2.10 8.30Q6.50 8.30 6.50 3.80L6.50-52.60L18.70-52.60L18.70 4.70Q18.70 8 17.55 11.10Q16.40 14.20 13.60 16.20Q10.80 18.20 5.70 18.20M47.70 1.20Q40.10 1.20 35.35-2.95Q30.60-7.10 30.60-17.10L30.60-52.60L42.80-52.60L42.80-19.30Q42.80-13.80 45.40-11.65Q48-9.50 52.40-9.50Q57.40-9.50 60.75-13Q64.10-16.50 64.10-22L64.10-52.60L76.30-52.60L76.30 0L66.20 0L65.20-7L64.50-7Q61.80-3.40 57.60-1.10Q53.40 1.20 47.70 1.20M109.30 1.20Q98 1.20 92.15-3.45Q86.30-8.10 86.30-15.10Q86.30-15.60 86.35-16Q86.40-16.40 86.40-16.60L98.40-16.60L98.40-15.80Q98.50-11.70 102-10.05Q105.50-8.40 109.80-8.40Q112.40-8.40 114.75-8.95Q117.10-9.50 118.65-10.75Q120.20-12 120.20-14Q120.20-16.60 118.20-18Q116.20-19.40 112.95-20.30Q109.70-21.20 106-22.20Q102.70-23.10 99.40-24.20Q96.10-25.30 93.45-27Q90.80-28.70 89.15-31.40Q87.50-34.10 87.50-38.10Q87.50-43.30 90.45-46.75Q93.40-50.20 98.45-51.95Q103.50-53.70 109.90-53.70Q116.10-53.70 120.90-51.95Q125.70-50.20 128.40-47Q131.10-43.80 131.10-39.50Q131.10-38.80 131.05-38.10Q131-37.40 131-37.30L119.10-37.30L119.10-38Q119.10-40.80 116.55-42.50Q114-44.20 109.30-44.20Q104.50-44.20 102.15-42.70Q99.80-41.20 99.80-39.10Q99.80-36.30 103.05-35.10Q106.30-33.90 110.90-32.50Q114.50-31.50 118.30-30.45Q122.10-29.40 125.35-27.80Q128.60-26.20 130.60-23.30Q132.60-20.40 132.60-15.60Q132.60-9.40 129.55-5.70Q126.50-2 121.25-0.40Q116 1.20 109.30 1.20M156.30 1.20Q151.40 1.20 148.60-0.75Q145.80-2.70 144.65-5.75Q143.50-8.80 143.50-12L143.50-42.60L137.20-42.60L137.20-52.60L143.80-52.60L146-67.30L155.70-67.30L155.70-52.60L164.80-52.60L164.80-42.60L155.70-42.60L155.70-13.20Q155.70-8.80 160.10-8.80L164.80-8.80L164.80-0.40Q163.30 0.20 160.85 0.70Q158.40 1.20 156.30 1.20M220.70 1.20Q215.60 1.20 211.40-0.85Q207.20-2.90 204.60-7L203.90-7L202.90 0L192.80 0L192.80-72.30L205-72.30L205-46.50L205.60-46.50Q210.50-53.80 221.40-53.80Q227.30-53.80 231.85-50.90Q236.40-48 239-41.95Q241.60-35.90 241.60-26.40Q241.60-12 236-5.40Q230.40 1.20 220.70 1.20M216.90-9.30Q223.60-9.30 226.30-13.30Q229-17.30 229-25.50L229-26.90Q229-35.30 226.30-39.30Q223.60-43.30 216.90-43.30Q210.70-43.30 207.85-39Q205-34.70 205-26.80L205-25.50Q205-17.70 207.85-13.50Q210.70-9.30 216.90-9.30M268.20 1.20Q260.60 1.20 255.85-2.95Q251.10-7.10 251.10-17.10L251.10-52.60L263.30-52.60L263.30-19.30Q263.30-13.80 265.90-11.65Q268.50-9.50 272.90-9.50Q277.90-9.50 281.25-13Q284.60-16.50 284.60-22L284.60-52.60L296.80-52.60L296.80 0L286.70 0L285.70-7L285-7Q282.30-3.40 278.10-1.10Q273.90 1.20 268.20 1.20M321.50-60.70L309.30-60.70L309.30-72.30L321.50-72.30L321.50-60.70M321.50 0L309.30 0L309.30-52.60L321.50-52.60L321.50 0M346.20 0L334 0L334-72.30L346.20-72.30L346.20 0M377 1.20Q367.30 1.20 361.70-5.40Q356.10-12 356.10-26.40Q356.10-35.90 358.70-41.95Q361.30-48 365.90-50.90Q370.50-53.80 376.30-53.80Q387.20-53.80 392.10-46.50L392.70-46.50L392.70-72.30L404.90-72.30L404.90 0L394.80 0L393.80-7L393.10-7Q390.60-2.90 386.35-0.85Q382.10 1.20 377 1.20M380.80-9.30Q387.10-9.30 389.90-13.50Q392.70-17.70 392.70-25.50L392.70-26.80Q392.70-34.70 389.85-39Q387-43.30 380.80-43.30Q374.10-43.30 371.40-39.30Q368.70-35.30 368.70-26.90L368.70-25.50Q368.70-17.30 371.40-13.30Q374.10-9.30 380.80-9.30M429.60-60.70L417.40-60.70L417.40-72.30L429.60-72.30L429.60-60.70M429.60 0L417.40 0L417.40-52.60L429.60-52.60L429.60 0M454.30 0L442.10 0L442.10-52.60L452.30-52.60L453.30-45.60L454-45.60Q456.70-49.20 460.85-51.50Q465-53.80 470.80-53.80Q475.80-53.80 479.65-52Q483.50-50.20 485.70-46.20Q487.90-42.20 487.90-35.50L487.90 0L475.60 0L475.60-33.30Q475.60-38.90 473-41Q470.40-43.10 466-43.10Q461.10-43.10 457.70-39.60Q454.30-36.10 454.30-30.60L454.30 0M532.50 18.20L508.70 18.20Q505.20 18.20 502.10 16.80Q499 15.40 497.10 12.65Q495.20 9.90 495.20 5.90Q495.20 1.50 497.75-1.05Q500.30-3.60 503.40-4.90Q501.10-6.10 499.65-8.10Q498.20-10.10 498.20-12.90Q498.20-16.70 501-18.95Q503.80-21.20 507.40-21.90Q499.80-26.70 499.80-36Q499.80-44.20 505.70-49Q511.60-53.80 522.50-53.80Q525.40-53.80 528.10-53.40Q530.80-53 533-52.20Q536.50-54.30 537.80-56.95Q539.10-59.60 539.20-61.30L551.10-61.30Q551.10-56 548.15-52.65Q545.20-49.30 540.20-48.10Q545.30-43.50 545.30-36Q545.30-27.80 539.55-22.95Q533.80-18.10 523.10-18.10L515-18.10Q510.60-18.10 510.60-14.70Q510.60-13.40 511.65-12.40Q512.70-11.40 514.60-11.40L537.60-11.40Q543.50-11.40 547.35-7.55Q551.20-3.70 551.20 2.30Q551.20 6.80 548.85 10.40Q546.50 14 542.30 16.10Q538.10 18.20 532.50 18.20M522.60-26.70Q527.90-26.70 530.55-29.15Q533.20-31.60 533.20-36Q533.20-40.40 530.55-42.80Q527.90-45.20 522.60-45.20Q517.30-45.20 514.65-42.80Q512-40.40 512-36Q512-31.60 514.65-29.15Q517.30-26.70 522.60-26.70M513.10 9.40L532.40 9.40Q535.20 9.40 537.05 7.95Q538.90 6.50 538.90 4.20Q538.90 1.60 537.25 0.30Q535.60-1 533.20-1L513.10-1Q510.70-1 509.10 0.45Q507.50 1.90 507.50 4.20Q507.50 6.50 509.05 7.95Q510.60 9.40 513.10 9.40M573.40 0L560.70 0L560.70-12.80L573.40-12.80" fill="#f6f5f0"/></g></g>
</svg>
