<svg xmlns="http://www.w3.org/2000/svg" viewBox="0 0 220 220" width="220" height="220">
  <rect width="220" height="220" rx="52" fill="#ffffff"/>
  <rect x="16" y="16" width="188" height="188" rx="40" fill="#1a342b"/>
  <g transform="translate(110 110) scale(0.97) translate(-56.05 26.05)"><path d="M18.30 0L7.50 0L7.50-32.60L7.50-52L16.70-52L16.10-35.80L17.90-35.80Q21.80-53.30 34.50-53.30Q39.30-53.30 42.45-51Q45.60-48.70 47.20-44.75Q48.80-40.80 49-36L50.60-36Q52.40-44.60 56.85-48.95Q61.30-53.30 67.90-53.30Q76.10-53.30 80.30-46.80Q84.50-40.30 84.50-27.90L84.50 0L73.60 0L73.60-26.50Q73.60-43.70 64.20-43.70Q58.80-43.70 55.40-38.35Q52-33 51.30-24.60L51.30 0L40.60 0L40.60-25.80Q40.60-43.70 31.20-43.70Q27.40-43.70 24.65-41.10Q21.90-38.50 20.30-34.15Q18.70-29.80 18.30-24.30" fill="#f6f5f0"/><path d="M98 1.20Q91.60 1.20 91.60-4.60Q91.60-10.50 98-10.50Q104.60-10.50 104.60-4.60Q104.60 1.20 98 1.20" fill="#f6f5f0" fill-opacity="0.62"/></g>
</svg>
