<svg xmlns="http://www.w3.org/2000/svg" width="56.00mm" height="56.00mm" viewBox="-13.200000000000001 -13.200000000000001 246.4 246.4">
  <!-- 3mm bleed: white extends past the cut -->
  <rect x="-13.200000000000001" y="-13.200000000000001" width="246.4" height="246.4" rx="65.2" fill="#ffffff"/>
  <rect width="220" height="220" rx="52" fill="#ffffff"/>
  <rect x="16" y="16" width="188" height="188" rx="40" fill="#1a342b"/>
  <g transform="translate(110 110) scale(0.84) translate(-102.95 26.05)">
    <path d="M18.30 0L7.50 0L7.50-32.60L7.50-52L16.70-52L16.10-35.80L17.90-35.80Q21.80-53.30 34.50-53.30Q39.30-53.30 42.45-51Q45.60-48.70 47.20-44.75Q48.80-40.80 49-36L50.60-36Q52.40-44.60 56.85-48.95Q61.30-53.30 67.90-53.30Q76.10-53.30 80.30-46.80Q84.50-40.30 84.50-27.90L84.50 0L73.60 0L73.60-26.50Q73.60-43.70 64.20-43.70Q58.80-43.70 55.40-38.35Q52-33 51.30-24.60L51.30 0L40.60 0L40.60-25.80Q40.60-43.70 31.20-43.70Q27.40-43.70 24.65-41.10Q21.90-38.50 20.30-34.15Q18.70-29.80 18.30-24.30L18.30 0M108.70 1.30Q102.20 1.30 97.95-2.40Q93.70-6.10 93.70-13.50Q93.70-21.40 99.55-25Q105.40-28.60 118-30.40Q123.30-31.10 125.70-32.05Q128.10-33 128.10-36.30Q128.10-39.70 125.70-42.15Q123.30-44.60 118.20-44.60Q115.30-44.60 112.45-43.60Q109.60-42.60 107.55-40.30Q105.50-38 104.80-34.30L95-37.40Q96.90-45 102.90-49.15Q108.90-53.30 118.50-53.30Q128.90-53.30 133.90-48.10Q138.90-42.90 138.90-31.80L138.90-21.20Q138.90-16.20 139.20-10.55Q139.50-4.90 140.10 0L130.20 0Q129.50-5.90 129.20-12.70L127.70-12.70Q125.60-7 120.90-2.85Q116.20 1.30 108.70 1.30M112.50-7.10Q116.60-7.10 121.05-9.95Q125.50-12.80 128.30-19.20L128.30-26.50Q125.80-25.40 122.65-24.85Q119.50-24.30 116.30-23.80Q113.10-23.30 110.40-22.40Q107.70-21.50 106-19.70Q104.30-17.90 104.30-14.70Q104.30-11 106.60-9.05Q108.90-7.10 112.50-7.10M170.10 1.30Q163.40 1.30 158.65-2.15Q153.90-5.60 151.40-11.75Q148.90-17.90 148.90-26Q148.90-33.90 151.25-40Q153.60-46.10 158.25-49.65Q162.90-53.20 169.70-53.20Q175.10-53.20 178.60-51.05Q182.10-48.90 184.20-45.20Q186.30-41.50 187.50-37L189.50-37Q188.70-41.40 188.05-46.20Q187.40-51 187.40-54.40L187.40-70.50L198.40-70.50L198.40-25.60L198.40 0L188.90 0L189.30-14.40L187.50-14.40Q185.70-7.10 181.55-2.90Q177.40 1.30 170.10 1.30M173.10-7.90Q177.80-7.90 181-10.65Q184.20-13.40 185.85-17.40Q187.50-21.40 187.50-25.10L187.50-26.50Q187.50-29 186.60-32Q185.70-35 183.95-37.75Q182.20-40.50 179.50-42.25Q176.80-44 173.10-44Q166.90-44 163.55-38.85Q160.20-33.70 160.20-25.80Q160.20-17.70 163.65-12.80Q167.10-7.90 173.10-7.90" fill="#f6f5f0"/>
  </g>
  <!-- die-cut line: vector 'CutContour' in 100% magenta. cut along this; do not print it. -->
  <rect id="CutContour" x="0" y="0" width="220" height="220" rx="52" fill="none" stroke="#EC008C" stroke-width="1.10"/>
</svg>